<svg width="28" height="18" viewBox="0 0 28 18" fill="none" xmlns="http://www.w3.org/2000/svg">
<path d="M27.9995 15.8829C28.0086 16.2956 27.8887 16.7008 27.6561 17.0423C27.4236 17.3839 27.09 17.6446 26.7019 17.7884C26.3139 17.9322 25.8907 17.9518 25.491 17.8446C25.0912 17.7373 24.7351 17.5086 24.4718 17.1901L14.0322 5.03739L3.59628 17.1901C3.4339 17.4104 3.22775 17.5949 2.99056 17.7321C2.75336 17.8692 2.49026 17.956 2.21785 17.9871C1.94545 18.0182 1.6696 17.9929 1.40747 17.9127C1.14534 17.8325 0.902565 17.6992 0.694487 17.5211C0.486406 17.3431 0.317619 17.1241 0.198336 16.8779C0.0790519 16.6317 0.0120544 16.3636 0.00148383 16.0904C-0.00908861 15.8171 0.0368689 15.5447 0.136776 15.29C0.236683 15.0354 0.388229 14.8041 0.581934 14.6106L12.5192 0.696877C12.7061 0.478379 12.9382 0.302924 13.1998 0.182614C13.4613 0.0623021 13.746 4.45591e-07 14.034 4.36587e-07C14.3221 4.27583e-07 14.6068 0.0623021 14.8683 0.182614C15.1299 0.302924 15.3622 0.478379 15.5491 0.696877L27.4979 14.6106C27.8109 14.9621 27.9889 15.4129 28 15.8829L27.9995 15.8829Z" fill="white"/>
</svg>
