<svg id="_49.Banned" data-name="49.Banned" xmlns="http://www.w3.org/2000/svg" width="29" height="29" viewBox="0 0 29 29">
  <path id="Path_30072" data-name="Path 30072" d="M26.5,12A14.5,14.5,0,1,0,41,26.5,14.516,14.516,0,0,0,26.5,12Zm0,26.742A12.114,12.114,0,0,1,19,36.167a.357.357,0,0,1-.033-.534L23.3,31.292c-.166-.117-.33-.242-.489-.374A1.292,1.292,0,0,1,22.352,30a1.307,1.307,0,0,1,.363-.977l.165-.171a1.308,1.308,0,0,1,1.769-.093,4.523,4.523,0,0,0,.7.486l1.91-1.91a4.954,4.954,0,0,0-.771-.423c-.512-.234-.965-.452-1.349-.651l-7.777,7.777A.357.357,0,0,1,16.833,34a12.114,12.114,0,0,1-2.575-7.5A12.256,12.256,0,0,1,26.5,14.258,12.114,12.114,0,0,1,34,16.833a.357.357,0,0,1,.033.534l-4.309,4.309a1.291,1.291,0,0,1-.373.727l-.162.159a1.289,1.289,0,0,1-.707.355l-1.3,1.3a9.473,9.473,0,0,1,1.991,1.066l.076.061,6.38-6.38a.357.357,0,0,1,.534.033,12.114,12.114,0,0,1,2.575,7.5A12.256,12.256,0,0,1,26.5,38.742Z" transform="translate(-12 -12)" fill="#1dc5ce"/>
  <path id="Path_30073" data-name="Path 30073" d="M203.844,143.413a10.688,10.688,0,0,0-2.287-1.162,4.041,4.041,0,0,1-1.42-.827,1.356,1.356,0,0,1-.427-.934,1.282,1.282,0,0,1,.49-1,1.782,1.782,0,0,1,1.191-.406h.01a2.781,2.781,0,0,1,1.636.591.59.59,0,0,0,.764-.049l.162-.159h0a.577.577,0,0,0,.174-.452.588.588,0,0,0-.227-.43,3.579,3.579,0,0,0-.408-.278,4.422,4.422,0,0,0-1.187-.439.357.357,0,0,1-.276-.346v-.237a.286.286,0,0,0-.286-.284h-.18a.286.286,0,0,0-.285.287v.136a.357.357,0,0,1-.338.358,2.832,2.832,0,0,0-1.929.807,2.35,2.35,0,0,0-.741,1.761,2.533,2.533,0,0,0,.289,1.171,3.06,3.06,0,0,0,.882,1.006,14.772,14.772,0,0,0,2.446,1.307,3.692,3.692,0,0,1,1.365.922,1.9,1.9,0,0,1-.2,2.529,2.015,2.015,0,0,1-1.39.578,3.677,3.677,0,0,1-2.374-.985.594.594,0,0,0-.38-.137.582.582,0,0,0-.42.176l-.165.171a.583.583,0,0,0-.164.442.569.569,0,0,0,.206.411,6.664,6.664,0,0,0,1.041.712,4.318,4.318,0,0,0,1.606.464.357.357,0,0,1,.318.353l.006,1.3a.375.375,0,0,0,.375.374h0a.375.375,0,0,0,.374-.377l-.006-1.347a.357.357,0,0,1,.282-.35,3.847,3.847,0,0,0,1.514-.6,2.9,2.9,0,0,0,.832-1.06,3.313,3.313,0,0,0,.323-1.472,3.264,3.264,0,0,0-.314-1.432A3.12,3.12,0,0,0,203.844,143.413Z" transform="translate(-187.108 -129.57)" fill="#1dc5ce"/>
</svg>
