<svg id="bill" xmlns="http://www.w3.org/2000/svg" width="27.74" height="37.303" viewBox="0 0 27.74 37.303">
  <path id="Path_26038" data-name="Path 26038" d="M34.125,74.8H36.86a.549.549,0,0,0,0-1.1H34.125a.549.549,0,0,0,0,1.1Z" transform="translate(-29.252 -52.009)" fill="#1dc5ce"/>
  <path id="Path_26039" data-name="Path 26039" d="M50.78,74.254a.549.549,0,0,0,.549.549h12.6a.549.549,0,0,0,0-1.1h-12.6A.549.549,0,0,0,50.78,74.254Z" transform="translate(-41.058 -52.009)" fill="#1dc5ce"/>
  <path id="Path_26040" data-name="Path 26040" d="M34.125,86.183H36.86a.549.549,0,1,0,0-1.1H34.125a.549.549,0,1,0,0,1.1Z" transform="translate(-29.252 -59.818)" fill="#1dc5ce"/>
  <path id="Path_26041" data-name="Path 26041" d="M63.925,85.085h-12.6a.549.549,0,1,0,0,1.1h12.6a.549.549,0,0,0,0-1.1Z" transform="translate(-41.058 -59.818)" fill="#1dc5ce"/>
  <path id="Path_26042" data-name="Path 26042" d="M34.125,97.564H36.86a.549.549,0,0,0,0-1.1H34.125a.549.549,0,0,0,0,1.1Z" transform="translate(-29.252 -67.628)" fill="#1dc5ce"/>
  <path id="Path_26043" data-name="Path 26043" d="M63.925,96.466h-12.6a.549.549,0,1,0,0,1.1h12.6a.549.549,0,0,0,0-1.1Z" transform="translate(-41.058 -67.628)" fill="#1dc5ce"/>
  <path id="Path_26044" data-name="Path 26044" d="M56.288,34.814l-.688.85a3.91,3.91,0,0,0,2.225,1.021v.639h.869v-.611c1.384-.094,2.177-.9,2.177-2,0-1.165-.869-1.613-2.177-1.909v-1.8a3.122,3.122,0,0,1,1.356.716l.649-.879a3.548,3.548,0,0,0-2-.888v-.59h-.868v.582a2.038,2.038,0,0,0-1.967,1.966c0,1.127.792,1.547,1.967,1.851v1.862a3.263,3.263,0,0,1-1.537-.82Zm2.406-.82c.678.2.983.4.983.84,0,.42-.334.784-.983.859Zm-1.632-2.177A.9.9,0,0,1,57.826,31v1.586c-.517-.183-.765-.383-.765-.765Z" transform="translate(-44.366 -21.586)" fill="#1dc5ce"/>
  <path id="Path_26045" data-name="Path 26045" d="M48.56,33.66A7.06,7.06,0,1,0,41.5,26.6,7.06,7.06,0,0,0,48.56,33.66Zm0-13.019A5.962,5.962,0,1,1,42.6,26.6,5.962,5.962,0,0,1,48.56,20.641Z" transform="translate(-34.69 -14.84)" fill="#1dc5ce"/>
  <path id="Path_26046" data-name="Path 26046" d="M46.986,4.557H20.344a.549.549,0,0,0-.549.549v36.2a.549.549,0,0,0,.938.388l2.276-2.276L25.284,41.7a.549.549,0,0,0,.777,0l2.276-2.276L30.613,41.7a.549.549,0,0,0,.777,0l2.276-2.276L35.941,41.7a.549.549,0,0,0,.777,0l2.276-2.276L41.269,41.7a.549.549,0,0,0,.777,0l2.276-2.276L46.6,41.7a.549.549,0,0,0,.938-.388V5.106a.549.549,0,0,0-.549-.549Zm-.549,35.427-1.726-1.726a.549.549,0,0,0-.776,0l-2.276,2.276-2.276-2.276a.549.549,0,0,0-.776,0L36.33,40.535l-2.276-2.276a.549.549,0,0,0-.776,0L31,40.535l-2.276-2.276a.549.549,0,0,0-.776,0l-2.276,2.276L23.4,38.259a.549.549,0,0,0-.776,0L20.9,39.984V5.655H46.439Z" transform="translate(-19.795 -4.557)" fill="#1dc5ce"/>
</svg>
