<svg xmlns="http://www.w3.org/2000/svg" width="34.117" height="37.613" viewBox="0 0 34.117 37.613">
  <g id="calendar_9_" data-name="calendar (9)" transform="translate(0)">
    <path id="Path_26064" data-name="Path 26064" d="M266.525,120.082h-1.1v-1.1h1.1Zm-1.837,0h-1.1v-1.1h1.1Zm0,0" transform="translate(-247.997 -111.987)" fill="#1dc5ce"/>
    <path id="Path_26065" data-name="Path 26065" d="M31.347,236.846H-.566v-24h-1.1v25.1H32.449v-25.1h-1.1Zm0,0" transform="translate(1.668 -200.335)" fill="#1dc5ce"/>
    <path id="Path_26066" data-name="Path 26066" d="M110.5,8.094l.9-.9V.9l-.9-.9h-2.448l-.9.9V7.2l.9.9Zm-2.242-6.742.251-.251h1.535l.251.251V6.741l-.251.251h-1.535l-.251-.251Zm0,0" transform="translate(-100.757 0.001)" fill="#1dc5ce"/>
    <path id="Path_26067" data-name="Path 26067" d="M401.219,8.094l.9-.9V.9l-.9-.9h-2.448l-.9.9V7.2l.9.9Zm-2.242-6.742.251-.251h1.535l.251.251V6.741l-.251.251h-1.535l-.251-.251Zm0,0" transform="translate(-374.393 0.001)" fill="#1dc5ce"/>
    <path id="Path_26068" data-name="Path 26068" d="M26.971,59.488v1.1h4.375v5.891H-.567V60.59H3.808v-1.1H-1.669v8.094H32.448V59.488Zm0,0" transform="translate(1.669 -55.992)" fill="#1dc5ce"/>
    <path id="Path_26069" data-name="Path 26069" d="M194.93,59.488h11.009v1.1H194.93Zm0,0" transform="translate(-183.376 -55.992)" fill="#1dc5ce"/>
    <path id="Path_26070" data-name="Path 26070" d="M120.278,247.609l-9.151,9.151-3.82-3.82-4.429,4.429,8.248,8.248,13.58-13.58Zm-15.841,9.76,2.87-2.87,3.82,3.82,9.151-9.151,2.87,2.87-12.021,12.021Zm0,0" transform="translate(-96.734 -233.057)" fill="#1dc5ce"/>
  </g>
</svg>
