<svg xmlns="http://www.w3.org/2000/svg" width="19.308" height="17.309" viewBox="0 0 19.308 17.309">
  <g id="campings" transform="translate(0 -30.031)">
    <g id="Layer_28" transform="translate(0 30.031)">
      <path id="Path_25869" data-name="Path 25869" d="M18.664,104.368H17.605L10.49,93.393l1.358-2.1a.644.644,0,0,0-1.078-.7L9.654,92.313,8.537,90.592a.644.644,0,0,0-1.078.7l1.358,2.1L1.7,104.368H.644a.644.644,0,0,0,0,1.289h18.02a.644.644,0,0,0,0-1.289ZM5.67,103.8a11.874,11.874,0,0,0,3.984-6.419c.772,2.765,2.278,5.6,4.9,6.983h-9.8a6.521,6.521,0,0,0,.914-.564Z" transform="translate(0 -88.348)" fill="#1dc5ce"/>
      <path id="Path_25870" data-name="Path 25870" d="M397.7,36.147a3.038,3.038,0,0,0,2.7-1.627.637.637,0,0,0-.083-.71.767.767,0,0,0-.723-.21,1.8,1.8,0,0,1-1.793-1.793c-.051-.449.283-.783.283-1.2a.637.637,0,0,0-.7-.57A3.066,3.066,0,0,0,397.7,36.147Z" transform="translate(-381.46 -30.031)" fill="#1dc5ce"/>
    </g>
  </g>
</svg>
