<svg id="category_1_" data-name="category (1)" xmlns="http://www.w3.org/2000/svg" width="31.255" height="31.25" viewBox="0 0 31.255 31.25">
  <path id="Path_26018" data-name="Path 26018" d="M10.833,13.66H3.175A2.928,2.928,0,0,1,.25,10.737V3.174A2.928,2.928,0,0,1,3.175.25h7.658a2.928,2.928,0,0,1,2.924,2.924v7.563A2.928,2.928,0,0,1,10.833,13.66ZM3.175,2.515a.661.661,0,0,0-.66.659v7.563a.661.661,0,0,0,.66.659h7.658a.66.66,0,0,0,.659-.659V3.174a.66.66,0,0,0-.659-.659Z" transform="translate(-0.25 -0.25)" fill="#1dc5ce"/>
  <path id="Path_26019" data-name="Path 26019" d="M10.874,33.355H3.216A2.928,2.928,0,0,1,.291,30.431V22.869a2.928,2.928,0,0,1,2.925-2.924h7.658A2.928,2.928,0,0,1,13.8,22.869v7.562a2.928,2.928,0,0,1-2.922,2.925ZM3.216,22.21a.661.661,0,0,0-.66.659v7.562a.661.661,0,0,0,.66.66h7.658a.661.661,0,0,0,.659-.66V22.869a.66.66,0,0,0-.659-.659Z" transform="translate(-0.254 -2.105)" fill="#1dc5ce"/>
  <path id="Path_26020" data-name="Path 26020" d="M30.422,33.355H22.764a2.928,2.928,0,0,1-2.925-2.925V22.869a2.928,2.928,0,0,1,2.925-2.924h7.658a2.928,2.928,0,0,1,2.924,2.924v7.562a2.928,2.928,0,0,1-2.924,2.925ZM22.764,22.214a.661.661,0,0,0-.66.659v7.562a.661.661,0,0,0,.66.66h7.658a.661.661,0,0,0,.659-.66V22.869a.66.66,0,0,0-.659-.659Z" transform="translate(-2.095 -2.105)" fill="#1dc5ce"/>
  <path id="Path_26021" data-name="Path 26021" d="M26.608,13.661a6.7,6.7,0,1,1,6.753-6.7,6.7,6.7,0,0,1-6.753,6.7Zm0-11.141A4.438,4.438,0,1,0,31.1,6.958,4.438,4.438,0,0,0,26.608,2.52Z" transform="translate(-2.106 -0.25)" fill="#1dc5ce"/>
</svg>
