<svg id="queue_1_" data-name="queue (1)" xmlns="http://www.w3.org/2000/svg" width="38" height="38" viewBox="0 0 38 38">
  <path id="Path_24077" data-name="Path 24077" d="M61.622,228.182l-2.215.245a16.766,16.766,0,0,1-16.672,18.592,17.045,17.045,0,0,1-13.345-6.431H31.6v-2.228H25.638v6.232h2.228v-2.347a19.224,19.224,0,0,0,20.9,6.02,19,19,0,0,0,12.853-20.083Z" transform="translate(-23.735 -211.247)" fill="#1dc5ce"/>
  <path id="Path_24078" data-name="Path 24078" d="M116.6,105.495a11.175,11.175,0,1,0,11.175,11.175A11.188,11.188,0,0,0,116.6,105.495Zm1.114,20.053v-2.136h-2.228v2.136a8.966,8.966,0,0,1-7.764-7.764h2.136v-2.228h-2.136a8.966,8.966,0,0,1,7.764-7.764v2.136h2.228v-2.136a8.966,8.966,0,0,1,7.764,7.764h-2.136v2.228h2.136A8.966,8.966,0,0,1,117.713,125.548Z" transform="translate(-97.6 -97.665)" fill="#1dc5ce"/>
  <path id="Path_24079" data-name="Path 24079" d="M243.216,194.366h-2.228v5.07l2.847,2.6,1.5-1.644-2.123-1.942Z" transform="translate(-223.102 -179.941)" fill="#1dc5ce"/>
  <path id="Path_24080" data-name="Path 24080" d="M4.747,10.175a16.789,16.789,0,0,1,8.927-7.067A16.6,16.6,0,0,1,24.65,3.22,16.9,16.9,0,0,1,31.824,8.2H29.7v2.228l6.024,0V4.478H33.5V6.728A19.144,19.144,0,0,0,25.4,1.122,18.8,18.8,0,0,0,12.966,1,19,19,0,0,0,.154,21.424l2.21-.285A16.806,16.806,0,0,1,4.747,10.175Z" transform="translate(0 0)" fill="#1dc5ce"/>
</svg>
