<svg xmlns="http://www.w3.org/2000/svg" width="22.967" height="17.478" viewBox="0 0 22.967 17.478">
  <g id="envelope" transform="translate(0 -57.75)">
    <g id="Group_19662" data-name="Group 19662" transform="translate(0 57.75)">
      <path id="Path_33320" data-name="Path 33320" d="M20.163,57.75H2.808A2.811,2.811,0,0,0,0,60.558V72.42a2.811,2.811,0,0,0,2.808,2.808h17.35a2.811,2.811,0,0,0,2.808-2.808V60.563A2.808,2.808,0,0,0,20.163,57.75Zm1.525,14.67a1.527,1.527,0,0,1-1.525,1.525H2.808A1.527,1.527,0,0,1,1.283,72.42V60.563a1.527,1.527,0,0,1,1.525-1.525h17.35a1.527,1.527,0,0,1,1.525,1.525V72.42Z" transform="translate(0 -57.75)" fill="#1dc5ce"/>
      <path id="Path_33321" data-name="Path 33321" d="M67.587,115.063l5.617-5.037a.643.643,0,1,0-.86-.955L64.6,116.023l-1.511-1.35s-.01-.009-.01-.014a.95.95,0,0,0-.1-.09l-6.149-5.5a.643.643,0,1,0-.855.96l5.683,5.08-5.66,5.3a.644.644,0,0,0-.029.908.656.656,0,0,0,.47.2.643.643,0,0,0,.437-.171l5.745-5.375,1.559,1.392a.64.64,0,0,0,.855,0l1.6-1.435,5.712,5.427a.643.643,0,0,0,.908-.024.644.644,0,0,0-.024-.908Z" transform="translate(-53.103 -106.472)" fill="#1dc5ce"/>
    </g>
  </g>
</svg>
