<svg id="confetti" xmlns="http://www.w3.org/2000/svg" width="37.33" height="37.336" viewBox="0 0 37.33 37.336">
  <path id="Path_26086" data-name="Path 26086" d="M102.493,7.246h4.359a2.459,2.459,0,1,0,.066-4.918A2.459,2.459,0,0,0,102,2.393V6.752a.492.492,0,0,0,.493.494Zm.492-4.851a1.474,1.474,0,1,1,2.948,0V2.82a.493.493,0,0,0,.492.492h.425a1.474,1.474,0,1,1,0,2.948h-3.867Z" transform="translate(-72.014 0.099)" fill="#1dc5ce"/>
  <path id="Path_26087" data-name="Path 26087" d="M36.2,19.93a.5.5,0,0,0-.525.5,4.257,4.257,0,0,1-1.357,2.934,3.754,3.754,0,0,1-3.275.363,10.6,10.6,0,0,0-3.55-.312,24.111,24.111,0,0,0-2.905-3.5,25.069,25.069,0,0,0-1.907-1.725,6.667,6.667,0,0,0,.395-1.686c.5-4.865,1.787-5.2,2.637-5.428a.512.512,0,0,0-.26-.99c-1.692.446-2.914,1.689-3.392,6.312a5.855,5.855,0,0,1-.23,1.13,17.6,17.6,0,0,0-4.453-2.459c-2.508-.9-4.548-.726-5.747.476a3.639,3.639,0,0,0-1,2.186l-1.455,3.31-5.6,12.745L.2,41.472a2.179,2.179,0,0,0,2.874,2.882l1.175-.519,5.6-2.471,5.6-2.471,5.6-2.471L26.775,33.9a3.628,3.628,0,0,0,2.174-1,3.277,3.277,0,0,0,.583-.8,7.032,7.032,0,0,1,1.493,2.827.511.511,0,0,0,.491.374.518.518,0,0,0,.137-.019.512.512,0,0,0,.355-.63A7.791,7.791,0,0,0,29.9,31.024c.341-1.777-.305-4.149-1.772-6.619a9.861,9.861,0,0,1,2.672.314,4.7,4.7,0,0,0,4.145-.544A5.235,5.235,0,0,0,36.7,20.458a.51.51,0,0,0-.5-.527ZM2.667,43.415a1.15,1.15,0,0,1-1.287-.242,1.171,1.171,0,0,1-.241-1.29l2.4-5.461v6.608ZM4.558,34.1,9.137,23.677V40.56L4.558,42.58Zm5.6-12.745.612-1.4a10.852,10.852,0,0,0,.387,1.345,19.115,19.115,0,0,0,3.577,5.873V38.088l-4.579,2.02Zm5.6,6.935c.078.08.155.161.235.241a23.317,23.317,0,0,0,4.343,3.456v3.633l-4.579,2.02Zm5.6,4.277a12.731,12.731,0,0,0,3.187,1.2l-3.187,1.407Zm7.608-2.3a8.278,8.278,0,0,0-3.877-1.4.512.512,0,0,0-.042,1.023,6.947,6.947,0,0,1,3.7,1.464,2.341,2.341,0,0,1-.523.821,2.64,2.64,0,0,1-1.6.712.531.531,0,0,0-.111.014c-2.494.23-6.445-1.727-9.805-5.094q-.563-.565-1.076-1.151a.464.464,0,0,0-.039-.044,18.184,18.184,0,0,1-3.478-5.651c-.742-2.089-.656-3.8.235-4.694a2.925,2.925,0,0,1,2.134-.738,7.726,7.726,0,0,1,2.549.5A16.779,16.779,0,0,1,21.424,18.5a7.418,7.418,0,0,1-4.515,3.294.512.512,0,0,0,.113,1.01.524.524,0,0,0,.114-.013,8.781,8.781,0,0,0,5.091-3.654c.558.465,1.108.967,1.64,1.5a23.028,23.028,0,0,1,2.494,2.952,7.616,7.616,0,0,0-3.711,1.9.511.511,0,1,0,.737.707,6.712,6.712,0,0,1,3.587-1.686,10.841,10.841,0,0,1,1.987,5.754Z" transform="translate(-0.018 -7.206)" fill="#1dc5ce"/>
  <path id="Path_26088" data-name="Path 26088" d="M91.167,37.06a1.8,1.8,0,1,0-1.8-1.8A1.8,1.8,0,0,0,91.167,37.06Zm0-2.608a.812.812,0,1,1-.812.812A.812.812,0,0,1,91.167,34.452Z" transform="translate(-63.228 -23.647)" fill="#1dc5ce"/>
  <path id="Path_26089" data-name="Path 26089" d="M64.028,11.709a1.8,1.8,0,1,0-1.8-1.8A1.8,1.8,0,0,0,64.028,11.709Zm0-2.608a.812.812,0,1,1-.812.812A.812.812,0,0,1,64.028,9.1Z" transform="translate(-44.029 -5.804)" fill="#1dc5ce"/>
</svg>
