<svg xmlns="http://www.w3.org/2000/svg" width="17.858" height="15.7" viewBox="0 0 17.858 15.7">
  <g id="heart-svgrepo-com" transform="translate(0 -28.501)">
    <path id="Path_9847" data-name="Path 9847" d="M16.416,29.959a4.945,4.945,0,0,0-6.993,0l-.488.488-.5-.5a4.94,4.94,0,0,0-6.993-.008,4.94,4.94,0,0,0,.008,6.993l7.11,7.11a.507.507,0,0,0,.719,0l7.125-7.1a4.954,4.954,0,0,0,.008-7Zm-.727,6.273L8.924,42.971l-6.75-6.75a3.919,3.919,0,1,1,5.543-5.543l.856.856a.51.51,0,0,0,.723,0l.848-.848a3.922,3.922,0,0,1,5.546,5.546Z" transform="translate(0)" fill="#1dc5ce"/>
  </g>
</svg>
