<svg id="hill" xmlns="http://www.w3.org/2000/svg" width="35" height="35" viewBox="0 0 35 35">
  <path id="Path_24089" data-name="Path 24089" d="M33.974,12.356a25.112,25.112,0,0,0-3.093.186v-2.43A3.09,3.09,0,0,0,32.94,7.2V3.085a3.085,3.085,0,0,0-6.169,0V7.2a3.09,3.09,0,0,0,2.059,2.909v2.781a20.866,20.866,0,0,0-6.079,2.381l-.107.065V14.231A3.09,3.09,0,0,0,24.7,11.322V7.2a3.085,3.085,0,0,0-6.169,0v4.119a3.09,3.09,0,0,0,2.059,2.909v2.463a52.783,52.783,0,0,0-5.387,4.722c-1.1,1.059-2.185,2.1-3.315,3.055a35.788,35.788,0,0,0-5.722-1.23V20.88a3.09,3.09,0,0,0,2.059-2.909V13.853a3.085,3.085,0,0,0-6.169,0v4.119A3.09,3.09,0,0,0,4.118,20.88v2.146q-1.529-.118-3.093-.12A1.025,1.025,0,0,0,0,23.932V33.975A1.025,1.025,0,0,0,1.024,35H33.974A1.025,1.025,0,0,0,35,33.975V13.381A1.025,1.025,0,0,0,33.974,12.356ZM9.848,26.037A15.014,15.014,0,0,1,2.05,28.8V24.971A35.315,35.315,0,0,1,9.848,26.037Zm23.1,6.912H2.05v-2.1a16.785,16.785,0,0,0,8-2.5,39.37,39.37,0,0,0,6.575-5.462c4.161-4,8.459-8.135,16.321-8.466ZM28.821,3.085a1.034,1.034,0,0,1,2.068,0V7.2a1.034,1.034,0,0,1-2.068,0ZM20.584,7.2a1.034,1.034,0,1,1,2.068,0v4.119a1.034,1.034,0,0,1-2.068,0ZM4.109,13.853a1.034,1.034,0,1,1,2.068,0v4.119a1.034,1.034,0,0,1-2.068,0Z" transform="translate(0.001)" fill="#1dc5ce"/>
  <path id="Path_24090" data-name="Path 24090" d="M63.335,8.229h6.178a3.085,3.085,0,0,0,0-6.169H68.3a3.085,3.085,0,0,0-5.862.132,3.085,3.085,0,0,0,.893,6.038Zm0-4.119A1.025,1.025,0,0,0,64.36,3.085a1.034,1.034,0,1,1,2.068,0A1.025,1.025,0,0,0,67.453,4.11h2.059a1.034,1.034,0,0,1,0,2.068H63.335a1.034,1.034,0,0,1,0-2.068Z" transform="translate(-56.131)" fill="#1dc5ce"/>
</svg>
