<svg xmlns="http://www.w3.org/2000/svg" width="40.554" height="32.689" viewBox="0 0 40.554 32.689">
  <g id="key" transform="translate(0)">
    <path id="Path_26071" data-name="Path 26071" d="M2.433,61.568a.244.244,0,0,1-.164-.033.563.563,0,0,1-.393-.327L.077,57.87a.644.644,0,0,1,.262-.883l1.08-.589L.829,55.155a.66.66,0,0,1,.229-.818l1.178-.753-.622-1.309a.659.659,0,0,1,.229-.818l1.211-.818-.622-1.374a.636.636,0,0,1-.033-.425l1.243-4.745a7.314,7.314,0,0,1-2-7.362,7.257,7.257,0,1,1,13.972,3.927,7.645,7.645,0,0,1-5.563,5.465L6.327,59.147a.7.7,0,0,1-.295.393l-3.272,1.9a.469.469,0,0,1-.327.131Zm-.916-3.73L2.694,60l2.454-1.44L8.911,45.4a.629.629,0,0,1,.524-.458,6.292,6.292,0,0,0,4.908-4.614A5.934,5.934,0,0,0,10.22,33a5.977,5.977,0,0,0-5.432,10.34.679.679,0,0,1,.229.687L3.742,48.938l.753,1.669a.67.67,0,0,1-.229.818l-1.21.785.622,1.276a.659.659,0,0,1-.229.818l-1.178.753.622,1.276a.634.634,0,0,1-.262.851Zm0,0" transform="translate(0.001 -28.879)" fill="#1dc5ce"/>
    <path id="Path_26072" data-name="Path 26072" d="M87.391,68.4a2.053,2.053,0,0,1-.622-.1,2.439,2.439,0,0,1-1.407-1.08,2.281,2.281,0,0,1-.2-1.734,2.354,2.354,0,0,1,2.847-1.6,2.44,2.44,0,0,1,1.407,1.08A2.326,2.326,0,0,1,87.391,68.4Zm0-3.272a.982.982,0,0,0-.949.72,1,1,0,0,0,.1.753,1,1,0,0,0,1.833-.229,1,1,0,0,0-.1-.753.965.965,0,0,0-.883-.491Zm0,0" transform="translate(-78.118 -58.62)" fill="#1dc5ce"/>
    <path id="Path_26073" data-name="Path 26073" d="M136.32,125.741a6.228,6.228,0,0,1-3.828-1.309.654.654,0,0,1,.785-1.047,5.022,5.022,0,0,0,5.563.327.645.645,0,1,1,.654,1.113A5.779,5.779,0,0,1,136.32,125.741Zm0,0" transform="translate(-121.42 -113.209)" fill="#1dc5ce"/>
    <path id="Path_26074" data-name="Path 26074" d="M106.4,6.887h-.033a.68.68,0,0,1-.622-.687,6.263,6.263,0,0,1,12.369-.884.655.655,0,1,1-1.276.295,4.947,4.947,0,0,0-9.784.654.7.7,0,0,1-.654.622Zm0,0" transform="translate(-97.099 -0.375)" fill="#1dc5ce"/>
    <path id="Path_26075" data-name="Path 26075" d="M222.871,78.169a.645.645,0,0,1-.458-.2L211.288,66.847a2.721,2.721,0,0,1-.851-1.767l-.687-7.231v-.066a2.909,2.909,0,0,1,.851-2.159,2.7,2.7,0,0,1,2-.851h.229l7.231.654a2.792,2.792,0,0,1,1.767.851L232.949,67.4a.633.633,0,0,1,0,.916l-9.62,9.653a.549.549,0,0,1-.458.2ZM211.059,57.751l.687,7.231v.066a1.435,1.435,0,0,0,.491.884L222.9,76.6l8.671-8.7L220.908,57.227a1.52,1.52,0,0,0-.883-.491h-.066l-7.362-.687a1.433,1.433,0,0,0-1.047.491,1.514,1.514,0,0,0-.491,1.211Zm0,0" transform="translate(-192.591 -50.323)" fill="#1dc5ce"/>
    <path id="Path_26076" data-name="Path 26076" d="M302.4,150.057a.647.647,0,0,1-.458-.2.633.633,0,0,1,0-.916l3.174-3.174a.648.648,0,0,1,.916.916l-3.174,3.174A.647.647,0,0,1,302.4,150.057Zm0,0" transform="translate(-277.065 -133.696)" fill="#1dc5ce"/>
    <path id="Path_26077" data-name="Path 26077" d="M347.6,195.259a.646.646,0,0,1-.458-.2.632.632,0,0,1,0-.916l3.174-3.174a.648.648,0,0,1,.916.916l-3.174,3.174A.647.647,0,0,1,347.6,195.259Zm0,0" transform="translate(-318.567 -175.201)" fill="#1dc5ce"/>
  </g>
</svg>
