<svg xmlns="http://www.w3.org/2000/svg" width="19.794" height="22" viewBox="0 0 19.794 22">
  <g id="kitchen-tool" transform="translate(-0.001 0)">
    <path id="Path_25874" data-name="Path 25874" d="M8,10.3l.018-.176a2.514,2.514,0,0,1-.635-.837L7.315,10l-.564.189A27.776,27.776,0,0,0,6.064,4.2,15.8,15.8,0,0,0,4.66.738a3.56,3.56,0,0,1,2.874,2.07,4.637,4.637,0,0,1,.41-.75A4.284,4.284,0,0,0,.45,2.38a4.33,4.33,0,0,0,.678,4.831l3.779,4.121a.358.358,0,0,0,.264.116.352.352,0,0,0,.113-.019L7.761,10.6A.356.356,0,0,0,8,10.3ZM3.159.9a3.623,3.623,0,0,1,.68-.153A14.706,14.706,0,0,1,5.375,4.391a24.674,24.674,0,0,1,.632,5.1C5.2,8.184,4.192,6.521,3.535,5.207A13.734,13.734,0,0,1,2.246,1.359,3.586,3.586,0,0,1,3.159.9Zm2.119,9.776L1.655,6.728a3.58,3.58,0,0,1-.032-4.813A14.743,14.743,0,0,0,2.9,5.527c.783,1.566,2.04,3.6,2.9,4.979Z" transform="translate(0)" fill="#1dc5ce"/>
    <path id="Path_25875" data-name="Path 25875" d="M18.519,30.3l-.676.226.436.866.625-.313Z" transform="translate(-11.291 -19.173)" fill="#1dc5ce"/>
    <path id="Path_25876" data-name="Path 25876" d="M17.525,58.719h6.816A2.215,2.215,0,0,0,25.975,58H15.891A2.215,2.215,0,0,0,17.525,58.719Z" transform="translate(-9.909 -36.719)" fill="#1dc5ce"/>
    <path id="Path_25877" data-name="Path 25877" d="M21.987,9.515A1.79,1.79,0,0,0,23.775,11.3h.358v3.577h1.431v-3.44l.2-.1a.931.931,0,0,0,.518-.838V7.051c0-.021,0-.043,0-.064V2.362A.358.358,0,0,0,25.922,2a3.939,3.939,0,0,0-3.935,3.935ZM22.7,7.05h.715V9.515a.358.358,0,0,0,.358.358h.376v.715h-.376A1.074,1.074,0,0,1,22.7,9.515Z" transform="translate(-13.869 -1.287)" fill="#1dc5ce"/>
    <path id="Path_25878" data-name="Path 25878" d="M20.418,35.458l-.567-1.418-1.277.64.312.778Z" transform="translate(-11.746 -21.538)" fill="#1dc5ce"/>
    <path id="Path_25879" data-name="Path 25879" d="M15.74,40,15.1,45.727H25.751L25.115,40Zm8.1,1.455.711-.079.079.711-.711.079ZM24,42.881l.711-.079.079.711-.711.079Zm.237,2.133-.079-.711.711-.079.079.711Z" transform="translate(-9.399 -25.157)" fill="#1dc5ce"/>
    <path id="Path_25880" data-name="Path 25880" d="M37.341,13.645a1.445,1.445,0,0,0,.489.08,3.706,3.706,0,0,0,3.023-2.343,2.548,2.548,0,0,0-1.516-3.237A2.43,2.43,0,0,0,38.517,8,2.489,2.489,0,0,0,36.18,9.687C35.7,11.076,36.148,13.217,37.341,13.645Z" transform="translate(-22.632 -5.139)" fill="#1dc5ce"/>
    <path id="Path_25881" data-name="Path 25881" d="M38.531,4.231a3.862,3.862,0,0,0-3.828.723V5.985A3.181,3.181,0,0,1,37.231,4.72a3.138,3.138,0,0,1,1.062.186,3.266,3.266,0,0,1,1.951,4.145,4.371,4.371,0,0,1-3.7,2.824,2.152,2.152,0,0,1-.731-.122,2.326,2.326,0,0,1-1.111-.9v.935a1.643,1.643,0,0,1-.715,1.361v3.016h1.038l1.279-3.583h.251a5.078,5.078,0,0,0,4.362-3.294,3.982,3.982,0,0,0-2.387-5.058Z" transform="translate(-21.347 -2.573)" fill="#1dc5ce"/>
  </g>
</svg>
