<svg xmlns="http://www.w3.org/2000/svg" width="20" height="23.885" viewBox="0 0 20 23.885">
  <g id="location_4_" data-name="location (4)" transform="translate(-41.64)">
    <g id="Group_17816" data-name="Group 17816" transform="translate(41.64)">
      <g id="Group_17815" data-name="Group 17815">
        <path id="Path_30070" data-name="Path 30070" d="M59.03,18.117a19.239,19.239,0,0,0-4.163-.841c.246-.374.5-.767.752-1.174,2.293-3.686,3.456-6.6,3.456-8.668a7.435,7.435,0,1,0-14.87,0c0,2.065,1.163,4.982,3.456,8.668.253.407.505.8.752,1.174a19.236,19.236,0,0,0-4.163.841c-1.731.6-2.609,1.4-2.609,2.382,0,1.1,1.095,1.969,3.254,2.585a25.694,25.694,0,0,0,6.746.8,25.7,25.7,0,0,0,6.746-.8c2.159-.615,3.254-1.485,3.254-2.585C61.64,19.518,60.762,18.717,59.03,18.117ZM45.7,7.435a5.935,5.935,0,1,1,11.87,0c0,1.754-1.114,4.473-3.222,7.863-1.037,1.669-2.085,3.123-2.713,3.966-.629-.842-1.676-2.3-2.713-3.966C46.819,11.908,45.7,9.189,45.7,7.435Zm12.27,14.207a24.182,24.182,0,0,1-6.335.743,24.182,24.182,0,0,1-6.335-.743c-1.788-.509-2.165-1.055-2.165-1.142s.285-.51,1.6-.965a19.166,19.166,0,0,1,4.638-.839c.935,1.334,1.63,2.213,1.675,2.27a.75.75,0,0,0,1.175,0c.045-.056.74-.935,1.675-2.27a19.163,19.163,0,0,1,4.638.839c1.315.455,1.6.883,1.6.965S59.763,21.132,57.975,21.642Z" transform="translate(-41.64)" fill="#fff"/>
      </g>
    </g>
    <g id="Group_17818" data-name="Group 17818" transform="translate(48.165 3.96)">
      <g id="Group_17817" data-name="Group 17817">
        <path id="Path_30071" data-name="Path 30071" d="M184.985,84.891a3.475,3.475,0,1,0,3.475,3.475A3.479,3.479,0,0,0,184.985,84.891Zm0,5.45a1.975,1.975,0,1,1,1.975-1.975A1.977,1.977,0,0,1,184.985,90.341Z" transform="translate(-181.51 -84.891)" fill="#fff"/>
      </g>
    </g>
  </g>
</svg>
