<svg xmlns="http://www.w3.org/2000/svg" width="29.25" height="37.307" viewBox="0 0 29.25 37.307">
  <path id="passport_1_" data-name="passport (1)" d="M66.41,22.651h.007l.014,0h.01l.036,0h0a6.731,6.731,0,0,0,0-13.461h-.046l-.048,0-.028,0a6.727,6.727,0,0,0,.055,13.452Zm-5.168-4.426h1.529a7.689,7.689,0,0,0,1.823,3.1,5.747,5.747,0,0,1-3.352-3.1Zm10.958-2.3a5.7,5.7,0,0,1-.153,1.293H70.325a7.978,7.978,0,0,0,.111-1.305,7.861,7.861,0,0,0-.108-1.28h1.719A5.705,5.705,0,0,1,72.2,15.924Zm-2.772.013a6.837,6.837,0,0,1-.121,1.28H66.981V14.632H69.3A6.941,6.941,0,0,1,69.427,15.937Zm-5.591,2.289h2.137v2.99A6.712,6.712,0,0,1,63.836,18.225Zm3.145,2.912V18.225h2.048A6.715,6.715,0,0,1,66.981,21.137Zm0-7.514V10.711a6.706,6.706,0,0,1,2.045,2.912Zm-1.008-2.99v2.99h-2.14A6.72,6.72,0,0,1,65.973,10.633Zm0,4v2.585H63.558a6.945,6.945,0,0,1-.123-1.305,6.838,6.838,0,0,1,.121-1.28Zm-3.438,2.585H60.907a5.546,5.546,0,0,1,0-2.585h1.63a7.981,7.981,0,0,0-.111,1.3A7.873,7.873,0,0,0,62.535,17.217Zm5.677,4.159a7.684,7.684,0,0,0,1.877-3.151h1.624A5.748,5.748,0,0,1,68.212,21.376Zm3.5-7.753H70.091a7.688,7.688,0,0,0-1.879-3.151A5.747,5.747,0,0,1,71.712,13.623Zm-7.118-3.1a7.685,7.685,0,0,0-1.821,3.1H61.241A5.746,5.746,0,0,1,64.594,10.526Zm19.63-3.907a2.793,2.793,0,0,0-1.642-1.391L66.631.134A2.82,2.82,0,0,0,63.1,1.959L62.036,5.274H58.1a2.817,2.817,0,0,0-2.814,2.814V34.494A2.817,2.817,0,0,0,58.1,37.308H74.849a2.817,2.817,0,0,0,2.814-2.813V29.885L84.407,8.763a2.794,2.794,0,0,0-.182-2.145Zm-7.57,27.875A1.807,1.807,0,0,1,74.849,36.3H58.1A1.807,1.807,0,0,1,56.3,34.494V8.088A1.807,1.807,0,0,1,58.1,6.283H74.849a1.807,1.807,0,0,1,1.805,1.805ZM83.446,8.457,77.663,26.571V8.088a2.817,2.817,0,0,0-2.814-2.814H63.095l.961-3.009a1.812,1.812,0,0,1,2.269-1.171L82.276,6.188a1.812,1.812,0,0,1,1.171,2.269Zm-10.169,18.1a.5.5,0,0,1-.5.5H60.181a.5.5,0,1,1,0-1.008H72.773A.5.5,0,0,1,73.277,26.552Zm0,3.559a.5.5,0,0,1-.5.5H60.181a.5.5,0,1,1,0-1.008H72.773A.5.5,0,0,1,73.277,30.111ZM70.421,33.67a.5.5,0,0,1-.5.5h-6.88a.5.5,0,1,1,0-1.008h6.88A.5.5,0,0,1,70.421,33.67Z" transform="translate(-55.291 0)" fill="#1dc5ce"/>
</svg>
