<svg xmlns="http://www.w3.org/2000/svg" width="32.999" height="33.047" viewBox="0 0 32.999 33.047">
  <g id="phone-call_2_" data-name="phone-call (2)" transform="translate(-0.344)">
    <g id="Group_17894" data-name="Group 17894" transform="translate(0.344 0)">
      <path id="Path_30097" data-name="Path 30097" d="M26.438,45.966a3.25,3.25,0,0,0-2.358-1.081A3.361,3.361,0,0,0,21.7,45.959l-2.2,2.2c-.181-.1-.363-.188-.537-.279-.251-.126-.488-.244-.691-.37a23.955,23.955,0,0,1-5.74-5.231,14.133,14.133,0,0,1-1.883-2.971c.572-.523,1.1-1.067,1.618-1.59.2-.2.391-.4.586-.593a3.2,3.2,0,0,0,0-4.827l-1.9-1.9c-.216-.216-.439-.439-.649-.663-.418-.432-.858-.879-1.311-1.3a3.3,3.3,0,0,0-2.337-1.025,3.417,3.417,0,0,0-2.371,1.025l-.014.014L1.887,30.838A5.1,5.1,0,0,0,.373,34.081a12.227,12.227,0,0,0,.893,5.175,30.032,30.032,0,0,0,5.336,8.9,32.823,32.823,0,0,0,10.93,8.558,17.029,17.029,0,0,0,6.138,1.813c.146.007.3.014.439.014a5.256,5.256,0,0,0,4.024-1.73c.007-.014.021-.021.028-.035a15.857,15.857,0,0,1,1.221-1.262c.3-.286.607-.586.907-.9A3.479,3.479,0,0,0,31.342,52.2a3.352,3.352,0,0,0-1.074-2.392Zm2.5,7.345c-.007,0-.007.007,0,0-.272.293-.551.558-.851.851a18.34,18.34,0,0,0-1.346,1.395,3.362,3.362,0,0,1-2.623,1.109c-.1,0-.216,0-.321-.007a15.128,15.128,0,0,1-5.44-1.632A30.983,30.983,0,0,1,8.059,46.964,28.316,28.316,0,0,1,3.038,38.6a9.959,9.959,0,0,1-.781-4.366,3.2,3.2,0,0,1,.963-2.072L5.6,29.784a1.586,1.586,0,0,1,1.06-.5,1.492,1.492,0,0,1,1.018.488L7.7,29.8c.425.4.83.809,1.255,1.249.216.223.439.446.663.677l1.9,1.9a1.331,1.331,0,0,1,0,2.162c-.2.2-.4.4-.6.6-.586.6-1.144,1.158-1.751,1.7-.014.014-.028.021-.035.035a1.423,1.423,0,0,0-.363,1.583l.021.063a15.287,15.287,0,0,0,2.253,3.676l.007.007a25.6,25.6,0,0,0,6.194,5.636,9.522,9.522,0,0,0,.858.467c.251.126.488.244.691.37.028.014.056.035.084.049a1.512,1.512,0,0,0,.691.174,1.491,1.491,0,0,0,1.06-.481l2.385-2.385a1.578,1.578,0,0,1,1.053-.523,1.421,1.421,0,0,1,1,.509l.014.014,3.843,3.843A1.379,1.379,0,0,1,28.935,53.311Z" transform="translate(-0.344 -25.494)" fill="#fff"/>
      <path id="Path_30098" data-name="Path 30098" d="M245.719,87.793a8.977,8.977,0,0,1,7.31,7.31.936.936,0,0,0,.928.781,1.245,1.245,0,0,0,.16-.014.943.943,0,0,0,.774-1.088,10.854,10.854,0,0,0-8.844-8.844.947.947,0,0,0-1.088.767A.931.931,0,0,0,245.719,87.793Z" transform="translate(-227.883 -79.932)" fill="#fff"/>
      <path id="Path_30099" data-name="Path 30099" d="M264.433,14.578A17.873,17.873,0,0,0,249.869.015a.94.94,0,1,0-.307,1.855,15.964,15.964,0,0,1,13.015,13.015.936.936,0,0,0,.928.781,1.245,1.245,0,0,0,.16-.014A.924.924,0,0,0,264.433,14.578Z" transform="translate(-231.448 0)" fill="#fff"/>
    </g>
  </g>
</svg>
