<svg xmlns="http://www.w3.org/2000/svg" width="22.967" height="23" viewBox="0 0 22.967 23">
  <g id="phone-call_2_" data-name="phone-call (2)" transform="translate(-0.344 0)">
    <g id="Group_17894" data-name="Group 17894" transform="translate(0.344 0)">
      <path id="Path_30097" data-name="Path 30097" d="M18.505,40.323a2.262,2.262,0,0,0-1.641-.752,2.339,2.339,0,0,0-1.66.748L13.67,41.848c-.126-.068-.252-.131-.374-.194-.175-.087-.34-.17-.481-.257a16.672,16.672,0,0,1-4-3.641A9.836,9.836,0,0,1,7.51,35.687c.4-.364.767-.743,1.126-1.107.136-.136.272-.277.408-.413a2.227,2.227,0,0,0,0-3.359L7.719,29.484c-.15-.15-.306-.306-.451-.461-.291-.3-.6-.612-.913-.9a2.3,2.3,0,0,0-1.626-.714,2.378,2.378,0,0,0-1.65.714l-.01.01-1.65,1.665A3.551,3.551,0,0,0,.364,32.052a8.51,8.51,0,0,0,.621,3.6A20.9,20.9,0,0,0,4.7,41.848,22.844,22.844,0,0,0,12.306,47.8a11.852,11.852,0,0,0,4.272,1.262c.1,0,.209.01.306.01a3.658,3.658,0,0,0,2.8-1.2c0-.01.015-.015.019-.024a11.036,11.036,0,0,1,.85-.879c.209-.2.422-.408.631-.626a2.422,2.422,0,0,0,.733-1.68A2.333,2.333,0,0,0,21.17,43Zm1.738,5.112s0,0,0,0c-.189.2-.383.388-.592.592a12.763,12.763,0,0,0-.937.971,2.34,2.34,0,0,1-1.825.772c-.073,0-.15,0-.223,0a10.529,10.529,0,0,1-3.786-1.136,21.563,21.563,0,0,1-7.165-5.612,19.708,19.708,0,0,1-3.5-5.82,6.931,6.931,0,0,1-.544-3.039,2.228,2.228,0,0,1,.67-1.442L4,29.061a1.1,1.1,0,0,1,.738-.345,1.038,1.038,0,0,1,.709.34l.015.015c.3.277.578.563.874.869.15.155.306.311.461.471l1.325,1.325a.926.926,0,0,1,0,1.5c-.141.141-.277.282-.417.417-.408.417-.8.806-1.218,1.184-.01.01-.019.015-.024.024a.99.99,0,0,0-.252,1.1l.015.044a10.639,10.639,0,0,0,1.568,2.558l0,0A17.817,17.817,0,0,0,12.107,42.5a6.627,6.627,0,0,0,.6.325c.175.087.34.17.481.257.019.01.039.024.058.034a1.052,1.052,0,0,0,.481.121,1.038,1.038,0,0,0,.738-.335l1.66-1.66a1.1,1.1,0,0,1,.733-.364.989.989,0,0,1,.7.354l.01.01,2.675,2.675A.96.96,0,0,1,20.243,45.435Z" transform="translate(-0.344 -26.076)" fill="#1dc5ce"/>
      <path id="Path_30098" data-name="Path 30098" d="M245.483,87.225a6.247,6.247,0,0,1,5.087,5.087.651.651,0,0,0,.646.544.865.865,0,0,0,.112-.01.656.656,0,0,0,.539-.757,7.554,7.554,0,0,0-6.155-6.155.659.659,0,0,0-.757.534A.648.648,0,0,0,245.483,87.225Z" transform="translate(-233.07 -81.754)" fill="#1dc5ce"/>
      <path id="Path_30099" data-name="Path 30099" d="M259.672,10.146A12.439,12.439,0,0,0,249.537.01a.654.654,0,1,0-.214,1.291,11.11,11.11,0,0,1,9.058,9.058.651.651,0,0,0,.646.544.868.868,0,0,0,.112-.01A.643.643,0,0,0,259.672,10.146Z" transform="translate(-236.716 0)" fill="#1dc5ce"/>
    </g>
  </g>
</svg>
