<svg id="printer" xmlns="http://www.w3.org/2000/svg" width="29.333" height="29.333" viewBox="0 0 29.333 29.333">
  <path id="Path_30074" data-name="Path 30074" d="M27.343,7.792H25.66c.01-.126.007.347.007-5.8A1.993,1.993,0,0,0,23.676,0H5.657A1.993,1.993,0,0,0,3.667,1.991c0,6.134,0,5.674.007,5.8H1.991A1.993,1.993,0,0,0,0,9.782V20.468a1.993,1.993,0,0,0,1.991,1.991H6.875v4.884a1.993,1.993,0,0,0,1.991,1.991h11.6a1.993,1.993,0,0,0,1.991-1.991V22.458h4.884a1.993,1.993,0,0,0,1.991-1.991V9.782a1.993,1.993,0,0,0-1.991-1.991ZM5.5,7.634V1.991a.157.157,0,0,1,.157-.157H23.676a.157.157,0,0,1,.157.157V7.634a.157.157,0,0,1-.157.157H5.657A.157.157,0,0,1,5.5,7.634ZM20.625,27.343a.157.157,0,0,1-.157.157H8.866a.157.157,0,0,1-.157-.157v-9.31a.157.157,0,0,1,.157-.157h11.6a.157.157,0,0,1,.157.157ZM27.5,20.468a.157.157,0,0,1-.157.157H22.458V18.032a1.993,1.993,0,0,0-1.991-1.991H8.866a1.993,1.993,0,0,0-1.991,1.991v2.593H1.991a.157.157,0,0,1-.157-.157V9.782a.157.157,0,0,1,.157-.157H27.343a.157.157,0,0,1,.157.157Z" transform="translate(0 0)" fill="#1dc5ce"/>
  <path id="Path_30075" data-name="Path 30075" d="M394.292,193.833h-1.375a.917.917,0,0,1,0-1.833h1.375a.917.917,0,1,1,0,1.833Z" transform="translate(-369.542 -181)" fill="#1dc5ce"/>
  <path id="Path_30076" data-name="Path 30076" d="M198.417,345.833h-5.5a.917.917,0,1,1,0-1.833h5.5a.917.917,0,0,1,0,1.833Z" transform="translate(-181 -324.292)" fill="#1dc5ce"/>
  <path id="Path_30077" data-name="Path 30077" d="M198.417,417.833h-5.5a.917.917,0,1,1,0-1.833h5.5a.917.917,0,0,1,0,1.833Z" transform="translate(-181 -392.167)" fill="#1dc5ce"/>
</svg>
