<svg id="queue_1_" data-name="queue (1)" xmlns="http://www.w3.org/2000/svg" width="29.333" height="29.333" viewBox="0 0 29.333 29.333">
  <path id="Path_24077" data-name="Path 24077" d="M53.415,228.182l-1.71.189a12.943,12.943,0,0,1-12.87,14.352,13.158,13.158,0,0,1-10.3-4.964h1.7v-1.72h-4.6v4.811h1.72v-1.812a14.84,14.84,0,0,0,16.135,4.647,14.669,14.669,0,0,0,9.922-15.5Z" transform="translate(-24.169 -215.109)" fill="#1dc5ce"/>
  <path id="Path_24078" data-name="Path 24078" d="M114.051,105.495a8.627,8.627,0,1,0,8.627,8.627A8.636,8.636,0,0,0,114.051,105.495Zm.86,15.48v-1.649h-1.72v1.649a6.921,6.921,0,0,1-5.993-5.993h1.649v-1.72H107.2a6.921,6.921,0,0,1,5.993-5.993v1.649h1.72v-1.649a6.921,6.921,0,0,1,5.993,5.993h-1.649v1.72H120.9A6.921,6.921,0,0,1,114.911,120.975Z" transform="translate(-99.384 -99.451)" fill="#1dc5ce"/>
  <path id="Path_24079" data-name="Path 24079" d="M242.708,194.366h-1.72v3.914l2.2,2.01,1.161-1.269-1.639-1.5Z" transform="translate(-227.181 -183.23)" fill="#1dc5ce"/>
  <path id="Path_24080" data-name="Path 24080" d="M3.664,7.855A12.96,12.96,0,0,1,10.556,2.4a12.811,12.811,0,0,1,8.472.086,13.048,13.048,0,0,1,5.538,3.846H22.927v1.72l4.65,0v-4.6h-1.72V5.194A14.778,14.778,0,0,0,19.609.866a14.515,14.515,0,0,0-9.6-.1A14.669,14.669,0,0,0,.119,16.538l1.706-.22A12.973,12.973,0,0,1,3.664,7.855Z" transform="translate(0 0)" fill="#1dc5ce"/>
</svg>
