<svg xmlns="http://www.w3.org/2000/svg" width="109.632" height="88.204" viewBox="0 0 109.632 88.204">
  <g id="Group_14314" data-name="Group 14314" transform="translate(237.422 180.648)" opacity="0.15">
    <g id="Group_14315" data-name="Group 14315" transform="translate(-237.422 -180.648)">
      <path id="Path_23995" data-name="Path 23995" d="M-100.69-92.53c-.364.029-.729.085-1.093.085q-22.707.006-45.415,0h-1.208c-.037-.353-.081-.58-.081-.807.048-15.372.008-30.745.192-46.116a69.866,69.866,0,0,1,3.368-21.539c2.373-7.065,6.286-12.921,13.141-16.389,5.11-2.585,10.6-3.365,16.333-3.349v24.5c-1.809.157-3.616.21-5.387.491-3.216.511-4.671,2.019-5.154,5.252a32.231,32.231,0,0,0-.356,4.4c-.046,4.315-.017,8.631-.017,13.02a6.75,6.75,0,0,0,.762.085q12.158.007,24.315,0c.2,0,.4-.032.6-.049Z" transform="translate(210.322 180.646)" fill="#1dc5ce"/>
      <path id="Path_23996" data-name="Path 23996" d="M-202.074-156.085c-1.491.083-2.9.126-4.3.246-4.159.357-6.145,2.148-6.369,6.314-.294,5.478-.285,10.972-.41,16.6h25.785v40.42h-47.684c-.022-.263-.062-.521-.062-.78,0-13.967-.012-27.935.031-41.9a99.179,99.179,0,0,1,1.574-18.186,42.185,42.185,0,0,1,5.629-15.348c4.144-6.415,10.177-9.924,17.565-11.217,2.364-.414,4.789-.478,7.187-.692.326-.029.656,0,1.049,0Z" transform="translate(235.109 180.648)" fill="#1dc5ce"/>
    </g>
  </g>
</svg>
