<svg id="Group_14315" data-name="Group 14315" xmlns="http://www.w3.org/2000/svg" width="85.588" height="68.859" viewBox="0 0 85.588 68.859">
  <path id="Path_23995" data-name="Path 23995" d="M-111.173-111.855c-.284.023-.569.066-.853.067q-17.727,0-35.454,0h-.943c-.029-.276-.064-.453-.063-.63.038-12,.006-24,.15-36a54.543,54.543,0,0,1,2.63-16.815c1.852-5.515,4.908-10.087,10.259-12.795a27.445,27.445,0,0,1,12.751-2.614v19.13c-1.412.123-2.823.164-4.206.384-2.51.4-3.647,1.576-4.023,4.1a25.166,25.166,0,0,0-.278,3.435c-.036,3.369-.013,6.738-.013,10.165a5.267,5.267,0,0,0,.6.066q9.491.005,18.982,0c.156,0,.312-.025.467-.038Z" transform="translate(196.76 180.645)" fill="#1dc5ce"/>
  <path id="Path_23996" data-name="Path 23996" d="M-209.319-161.472c-1.164.065-2.262.1-3.354.192-3.247.279-4.8,1.677-4.972,4.929-.23,4.276-.223,8.565-.32,12.956h20.13v31.555H-235.06c-.017-.205-.049-.407-.049-.609,0-10.9-.009-21.808.024-32.711a77.427,77.427,0,0,1,1.229-14.2,32.933,32.933,0,0,1,4.395-11.982,19.533,19.533,0,0,1,13.713-8.757c1.845-.323,3.739-.373,5.611-.541.254-.023.512,0,.819,0Z" transform="translate(235.109 180.648)" fill="#1dc5ce"/>
</svg>
