<svg id="Group_325" data-name="Group 325" xmlns="http://www.w3.org/2000/svg" width="61.447" height="54.969" viewBox="0 0 61.447 54.969">
  <path id="Path_970" data-name="Path 970" d="M959.279,447.828c-2.456,0-4.733.009-7.01,0-4.267-.021-6.689-2.45-6.692-6.7q0-6.66,0-13.32a6,6,0,0,1,6.28-6.381q7.976-.068,15.953,0c3.863.03,6.326,2.575,6.324,6.458,0,6.76.04,13.52-.067,20.279A39.025,39.025,0,0,1,971.98,460.4c-3.211,9.252-9.894,14.207-19.406,15.631-1.026.153-2.067.209-3.1.31-.976.1-1.571-.311-1.575-1.323q-.025-5.819,0-11.639a1.243,1.243,0,0,1,1.249-1.332c.593-.076,1.183-.19,1.767-.325a9.378,9.378,0,0,0,6.653-5.372A19.59,19.59,0,0,0,959.279,447.828Zm-8.944,26a4.77,4.77,0,0,0,.589,0c.987-.149,1.979-.272,2.956-.469,6.622-1.33,11.7-4.751,14.7-10.949a29.007,29.007,0,0,0,2.877-11.431c.231-5.35.211-10.711.274-16.067.03-2.48.034-4.96-.006-7.439a3.263,3.263,0,0,0-3.343-3.453c0,2.673-.006,5.349,0,8.026,0,.9-.051,1.806-1.228,1.785s-1.184-.955-1.181-1.834c.007-1.96,0-3.919,0-5.879v-2.264c-4.979,0-9.775-.06-14.568.027-2.136.038-3.412,1.587-3.421,3.838-.018,4.439-.008,8.879,0,13.318,0,3.052,1.314,4.367,4.382,4.378q3.838.013,7.676,0c1.025,0,1.706.316,1.7,1.5a25.886,25.886,0,0,1-1.537,9.41,11.911,11.911,0,0,1-8.885,7.781c-.336.076-.66.2-.981.3Z" transform="translate(-912.694 -421.385)" fill="#1dc5ce"/>
  <path id="Path_971" data-name="Path 971" d="M822.333,447.81c-2.651,0-5.08.031-7.508-.008a5.983,5.983,0,0,1-6.154-4.83,7.09,7.09,0,0,1-.133-1.547q-.015-6.841,0-13.682a5.986,5.986,0,0,1,6.206-6.333q8.1-.081,16.2,0a5.98,5.98,0,0,1,6.156,6.261q.012,1.68,0,3.361c-.008.784-.342,1.342-1.192,1.345s-1.192-.549-1.2-1.335c-.013-1.16.013-2.321-.011-3.48a3.484,3.484,0,0,0-3.561-3.718q-8.336-.1-16.674.006a3.434,3.434,0,0,0-3.5,3.645q-.049,7.08,0,14.162a3.554,3.554,0,0,0,3.813,3.726c2.678.053,5.359.007,8.038.02,1.617.008,1.963.315,1.868,1.892a45.373,45.373,0,0,1-.535,5.479c-1.12,6.091-4.3,10.333-10.8,11.526v9.549c7.422-.736,13.643-3.39,17.5-10.136,2.751-4.817,3.569-10.131,3.811-15.566.091-2.037.055-4.08.047-6.12,0-.891.177-1.706,1.216-1.7s1.191.831,1.2,1.716c.075,5.774-.075,11.527-1.761,17.113-3.106,10.294-10.795,16.317-21.748,17.086-2.707.19-2.758.143-2.758-2.6,0-3.281.008-6.561,0-9.842,0-.934.193-1.652,1.307-1.781,6.862-.8,8.971-5.548,9.782-10.3C822.128,450.515,822.184,449.276,822.333,447.81Z" transform="translate(-808.527 -421.369)" fill="#1dc5ce"/>
  <path id="Path_972" data-name="Path 972" d="M920.638,480.259c-.756.546-1.252,1.171-1.615,1.1a1.8,1.8,0,0,1-1.178-1.152.953.953,0,0,1,1.195-1.105C919.515,479.2,919.905,479.707,920.638,480.259Z" transform="translate(-891.603 -465.233)" fill="#1dc5ce"/>
  <path id="Path_973" data-name="Path 973" d="M1029.918,482.2c.467-.309.946-.872,1.4-.851.4.019.771.686,1.154,1.067-.4.407-.76,1.051-1.226,1.144-.364.072-.863-.544-1.3-.854Q1029.929,482.452,1029.918,482.2Z" transform="translate(-976.804 -466.958)" fill="#1dc5ce"/>
</svg>
