<svg id="Group_325" data-name="Group 325" xmlns="http://www.w3.org/2000/svg" width="34.334" height="30.714" viewBox="0 0 34.334 30.714">
  <path id="Path_970" data-name="Path 970" d="M953.231,436.162c-1.372,0-2.645.005-3.917,0a3.411,3.411,0,0,1-3.739-3.745q0-3.721,0-7.443a3.355,3.355,0,0,1,3.509-3.565q4.457-.038,8.914,0a3.36,3.36,0,0,1,3.533,3.608c0,3.777.022,7.554-.037,11.331a21.81,21.81,0,0,1-1.167,6.84c-1.794,5.17-5.528,7.938-10.843,8.734-.573.086-1.155.117-1.733.173-.545.053-.878-.174-.88-.739q-.014-3.252,0-6.5a.694.694,0,0,1,.7-.744c.331-.042.661-.106.987-.182a5.24,5.24,0,0,0,3.717-3A10.944,10.944,0,0,0,953.231,436.162Zm-5,14.529a2.658,2.658,0,0,0,.329,0c.551-.083,1.106-.152,1.652-.262a10.94,10.94,0,0,0,8.212-6.118,16.206,16.206,0,0,0,1.607-6.387c.129-2.989.118-5.985.153-8.978.017-1.385.019-2.771,0-4.156a1.823,1.823,0,0,0-1.868-1.929c0,1.494,0,2.989,0,4.484,0,.5-.028,1.009-.686,1s-.662-.534-.66-1.025c0-1.1,0-2.19,0-3.285v-1.265c-2.782,0-5.462-.033-8.14.015a1.928,1.928,0,0,0-1.911,2.144c-.01,2.48,0,4.961,0,7.442,0,1.705.734,2.44,2.449,2.446q2.144.008,4.289,0c.573,0,.953.176.949.836a14.464,14.464,0,0,1-.859,5.258,6.655,6.655,0,0,1-4.964,4.348c-.188.042-.369.113-.548.169Z" transform="translate(-927.202 -421.387)" fill="#fff"/>
  <path id="Path_971" data-name="Path 971" d="M816.241,436.143c-1.481,0-2.839.017-4.2,0a3.343,3.343,0,0,1-3.439-2.7,3.967,3.967,0,0,1-.074-.864q-.008-3.822,0-7.645A3.345,3.345,0,0,1,812,421.392q4.525-.045,9.05,0a3.341,3.341,0,0,1,3.44,3.5q.007.939,0,1.878c0,.438-.191.75-.666.751s-.666-.307-.671-.746c-.007-.648.008-1.3-.006-1.945a1.946,1.946,0,0,0-1.99-2.078q-4.658-.056-9.317,0a1.919,1.919,0,0,0-1.957,2.037q-.027,3.956,0,7.913a1.986,1.986,0,0,0,2.131,2.082c1.5.03,2.994,0,4.491.011.9,0,1.1.176,1.044,1.057a25.346,25.346,0,0,1-.3,3.061c-.626,3.4-2.405,5.774-6.035,6.44v5.336c4.147-.411,7.623-1.894,9.776-5.663a18.783,18.783,0,0,0,2.13-8.7c.051-1.138.031-2.28.026-3.42,0-.5.1-.953.68-.95s.666.464.672.959a31.32,31.32,0,0,1-.984,9.562c-1.736,5.752-6.032,9.117-12.152,9.547-1.513.106-1.541.08-1.541-1.45,0-1.833,0-3.666,0-5.5,0-.522.108-.923.73-1,3.834-.446,5.012-3.1,5.466-5.754C816.127,437.655,816.158,436.962,816.241,436.143Z" transform="translate(-808.527 -421.369)" fill="#fff"/>
  <path id="Path_972" data-name="Path 972" d="M919.4,479.738c-.422.305-.7.654-.9.616a1,1,0,0,1-.658-.644.533.533,0,0,1,.667-.618C918.769,479.147,918.987,479.429,919.4,479.738Z" transform="translate(-903.174 -471.342)" fill="#fff"/>
  <path id="Path_973" data-name="Path 973" d="M1029.918,481.823c.261-.173.528-.487.781-.475.224.011.431.384.645.6-.225.227-.425.587-.685.639-.2.04-.482-.3-.727-.477Q1029.924,481.964,1029.918,481.823Z" transform="translate(-1000.241 -473.307)" fill="#fff"/>
</svg>
