<svg id="report" xmlns="http://www.w3.org/2000/svg" width="17" height="17" viewBox="0 0 17 17">
  <path id="Path_26001" data-name="Path 26001" d="M15.168,0H1.832A1.834,1.834,0,0,0,0,1.832V11.6a1.834,1.834,0,0,0,1.832,1.832H6.058l1.4,2.8A1.211,1.211,0,0,0,8.5,17a1.211,1.211,0,0,0,1.042-.767l1.4-2.8h4.227A1.834,1.834,0,0,0,17,11.6V1.832A1.834,1.834,0,0,0,15.168,0ZM16,11.6a.836.836,0,0,1-.836.836H10.634a.5.5,0,0,0-.446.275L8.651,15.787A.606.606,0,0,1,8.5,16a.606.606,0,0,1-.151-.208L6.812,12.712a.5.5,0,0,0-.445-.275H1.832A.837.837,0,0,1,1,11.6V1.832A.837.837,0,0,1,1.832,1H15.168A.837.837,0,0,1,16,1.832Zm0,0" fill="#1dc5ce"/>
  <path id="Path_26002" data-name="Path 26002" d="M210.432,262.105A1.565,1.565,0,1,0,212,263.67,1.567,1.567,0,0,0,210.432,262.105Zm0,2.134a.569.569,0,1,1,.569-.569A.569.569,0,0,1,210.432,264.239Zm0,0" transform="translate(-201.932 -253.402)" fill="#1dc5ce"/>
  <path id="Path_26003" data-name="Path 26003" d="M210.432,64.266a1.567,1.567,0,0,0-1.565,1.565v2.3a1.565,1.565,0,0,0,3.13,0v-2.3A1.567,1.567,0,0,0,210.432,64.266ZM211,68.132a.569.569,0,1,1-1.138,0v-2.3a.569.569,0,0,1,1.138,0Zm0,0" transform="translate(-201.932 -62.132)" fill="#1dc5ce"/>
</svg>
