<svg xmlns="http://www.w3.org/2000/svg" width="15.234" height="16.25" viewBox="0 0 15.234 16.25">
  <g id="share_1_" data-name="share (1)" transform="translate(-16)">
    <g id="Group_17419" data-name="Group 17419" transform="translate(16)">
      <path id="Path_26004" data-name="Path 26004" d="M28.378,10.537a2.854,2.854,0,0,0-2.3,1.161L21.6,9.406A2.856,2.856,0,0,0,21.5,7.53l4.7-2.823a2.845,2.845,0,1,0-.489-.817L21,6.72a2.856,2.856,0,1,0,.175,3.542l4.471,2.285a2.857,2.857,0,1,0,2.728-2.01Zm0-9.585a1.9,1.9,0,1,1-1.9,1.9A1.906,1.906,0,0,1,28.378.952Zm-9.521,9.553a1.9,1.9,0,1,1,1.9-1.9A1.906,1.906,0,0,1,18.856,10.505ZM28.378,15.3a1.9,1.9,0,1,1,1.9-1.9A1.906,1.906,0,0,1,28.378,15.3Z" transform="translate(-16)" fill="#1dc5ce"/>
    </g>
  </g>
</svg>
