<svg id="ship" xmlns="http://www.w3.org/2000/svg" width="38.623" height="37.51" viewBox="0 0 38.623 37.51">
  <path id="Path_26057" data-name="Path 26057" d="M16.133,41.949a.552.552,0,0,1-.428-.2c-3.107-3.8-6.094-10.8-5.788-16.836a.552.552,0,0,1,.35-.486L24.65,18.8a.552.552,0,0,1,.4,0l14.383,5.628a.552.552,0,0,1,.35.486c.306,6.041-2.684,13.042-5.793,16.836a.552.552,0,0,1-.853-.7c2.844-3.468,5.715-10.1,5.561-15.725L24.851,19.9,11.006,25.32c-.154,5.623,2.714,12.256,5.555,15.725a.552.552,0,0,1-.427.9Z" transform="translate(-5.539 -10.07)" fill="#1dc5ce"/>
  <path id="Path_26058" data-name="Path 26058" d="M39.176,34.35a.552.552,0,0,1-.2-.038L25.188,28.97,11.4,34.312a.552.552,0,0,1-.4-1.029l13.989-5.422a.552.552,0,0,1,.4,0l13.989,5.422a.552.552,0,0,1-.2,1.067Z" transform="translate(-5.876 -14.133)" fill="#1dc5ce"/>
  <path id="Path_26059" data-name="Path 26059" d="M33.816,60.5a7.354,7.354,0,0,1-3.345-.715,6.341,6.341,0,0,0-2.911-.625,6.33,6.33,0,0,0-2.908.625,7.35,7.35,0,0,1-3.344.715,7.353,7.353,0,0,1-3.344-.715,6.333,6.333,0,0,0-2.909-.625,6.328,6.328,0,0,0-2.908.625A7.349,7.349,0,0,1,8.8,60.5a7.338,7.338,0,0,1-3.343-.715,6.329,6.329,0,0,0-2.908-.625.552.552,0,0,1,0-1.1,7.345,7.345,0,0,1,3.343.717A6.332,6.332,0,0,0,8.8,59.4a6.336,6.336,0,0,0,2.909-.628,7.346,7.346,0,0,1,3.343-.717,7.351,7.351,0,0,1,3.344.717,6.34,6.34,0,0,0,2.909.625,6.338,6.338,0,0,0,2.909-.625,7.346,7.346,0,0,1,3.343-.717,7.365,7.365,0,0,1,3.345.714,7.086,7.086,0,0,0,5.822,0,7.354,7.354,0,0,1,3.345-.711.552.552,0,0,1,0,1.1,6.341,6.341,0,0,0-2.911.625A7.353,7.353,0,0,1,33.816,60.5Z" transform="translate(-2 -27.683)" fill="#1dc5ce"/>
  <path id="Path_26060" data-name="Path 26060" d="M33.816,69a7.354,7.354,0,0,1-3.345-.717,6.341,6.341,0,0,0-2.911-.625,6.33,6.33,0,0,0-2.908.625A7.35,7.35,0,0,1,21.307,69a7.353,7.353,0,0,1-3.344-.717,6.333,6.333,0,0,0-2.909-.625,6.328,6.328,0,0,0-2.908.625A7.349,7.349,0,0,1,8.8,69a7.338,7.338,0,0,1-3.343-.717,6.329,6.329,0,0,0-2.908-.622.552.552,0,1,1,0-1.1,7.344,7.344,0,0,1,3.343.715A6.332,6.332,0,0,0,8.8,67.9a6.336,6.336,0,0,0,2.909-.625,7.346,7.346,0,0,1,3.343-.715,7.351,7.351,0,0,1,3.344.715,6.34,6.34,0,0,0,2.909.625,6.338,6.338,0,0,0,2.909-.625,7.346,7.346,0,0,1,3.343-.715,7.365,7.365,0,0,1,3.345.714,7.086,7.086,0,0,0,5.822,0,7.354,7.354,0,0,1,3.345-.714.552.552,0,1,1,0,1.1,6.34,6.34,0,0,0-2.911.625A7.353,7.353,0,0,1,33.816,69Z" transform="translate(-2 -31.495)" fill="#1dc5ce"/>
  <path id="Path_26061" data-name="Path 26061" d="M36.552,42.886A.552.552,0,0,1,36,42.334V19.31a.552.552,0,0,1,1.1,0V42.334A.552.552,0,0,1,36.552,42.886Z" transform="translate(-17.24 -10.069)" fill="#1dc5ce"/>
  <path id="Path_26062" data-name="Path 26062" d="M38.187,20.055a.552.552,0,0,1-.552-.552V13.341a.651.651,0,0,0-.65-.651H21.959a.651.651,0,0,0-.65.651V19.5a.552.552,0,0,1-1.1,0V13.341a1.756,1.756,0,0,1,1.753-1.754H36.985a1.756,1.756,0,0,1,1.753,1.754V19.5A.552.552,0,0,1,38.187,20.055Z" transform="translate(-10.161 -6.855)" fill="#1dc5ce"/>
  <path id="Path_26063" data-name="Path 26063" d="M36.925,8.846H32.944a.552.552,0,0,1-.552-.552V3.563a.552.552,0,0,1,.552-.552h3.981a.552.552,0,0,1,.552.552V8.295A.552.552,0,0,1,36.925,8.846Zm-3.43-1.1h2.878V4.115H33.5Z" transform="translate(-15.623 -3.011)" fill="#1dc5ce"/>
</svg>
