<svg id="speedometer" xmlns="http://www.w3.org/2000/svg" width="40" height="40" viewBox="0 0 40 40">
  <g id="Group_17364" data-name="Group 17364">
    <g id="Group_17363" data-name="Group 17363">
      <path id="Path_24084" data-name="Path 24084" d="M34.142,5.858a20,20,0,0,0-28.284,0h0A19.87,19.87,0,0,0,0,20H0A19.829,19.829,0,0,0,4,32a1.172,1.172,0,0,0,.937.468H35.063A1.172,1.172,0,0,0,36,32a19.831,19.831,0,0,0,4-12h0A19.869,19.869,0,0,0,34.142,5.858Zm.324,24.267H5.534a17.463,17.463,0,0,1-3.151-8.953h1.3a1.172,1.172,0,0,0,0-2.344h-1.3A17.583,17.583,0,0,1,6.72,8.378l.913.913A1.172,1.172,0,1,0,9.29,7.633L8.378,6.72A17.583,17.583,0,0,1,18.828,2.384v1.3a1.172,1.172,0,1,0,2.344,0v-1.3A17.583,17.583,0,0,1,31.623,6.72l-.913.913A1.172,1.172,0,1,0,32.367,9.29l.913-.913a17.583,17.583,0,0,1,4.337,10.451h-1.3a1.172,1.172,0,0,0,0,2.344h1.3A17.465,17.465,0,0,1,34.466,30.125Z" fill="#1dc5ce"/>
    </g>
  </g>
  <g id="Group_17366" data-name="Group 17366" transform="translate(11.297 37.656)">
    <g id="Group_17365" data-name="Group 17365">
      <path id="Path_24085" data-name="Path 24085" d="M160.834,482H145.772a1.172,1.172,0,1,0,0,2.344h15.063a1.172,1.172,0,1,0,0-2.344Z" transform="translate(-144.6 -482)" fill="#1dc5ce"/>
    </g>
  </g>
  <g id="Group_17368" data-name="Group 17368" transform="translate(15.062 12.311)">
    <g id="Group_17367" data-name="Group 17367">
      <path id="Path_24086" data-name="Path 24086" d="M205.083,157.919a1.172,1.172,0,0,0-1.657,0l-3.127,3.127a4.941,4.941,0,1,0,1.657,1.657l3.127-3.127A1.172,1.172,0,0,0,205.083,157.919Zm-7.346,9.94a2.594,2.594,0,1,1,2.594-2.594A2.6,2.6,0,0,1,197.737,167.859Z" transform="translate(-192.799 -157.576)" fill="#1dc5ce"/>
    </g>
  </g>
</svg>
