<svg id="group" xmlns="http://www.w3.org/2000/svg" width="38.619" height="33.898" viewBox="0 0 38.619 33.898">
  <path id="Path_24087" data-name="Path 24087" d="M10.921,16.879a6.8,6.8,0,0,0,3.427-.917,7.641,7.641,0,0,0,12.575.251A6.942,6.942,0,1,0,24.674,5.188a7.586,7.586,0,0,0-8.4.306,6.931,6.931,0,1,0-5.349,11.352ZM34.564,9.9a4.748,4.748,0,0,1-6.669,4.366,7.532,7.532,0,0,0-1.539-7.641A4.759,4.759,0,0,1,34.564,9.9ZM26.17,11.737A5.458,5.458,0,1,1,20.712,6.28,5.458,5.458,0,0,1,26.17,11.737ZM10.888,5.188a4.726,4.726,0,0,1,3.766,1.867,7.641,7.641,0,0,0-1.277,6.931,4.748,4.748,0,1,1-2.456-8.8Z" transform="translate(-1.064 -2.945)" fill="#1dc5ce"/>
  <path id="Path_24088" data-name="Path 24088" d="M31.371,17.27H28.741a8.492,8.492,0,0,0-6.484,2.98H18.982a8.58,8.58,0,0,0-6.473-2.958H9.868A8.569,8.569,0,0,0,1.31,25.85v4.224A1.092,1.092,0,0,0,2.4,31.165h7.641V34.44a1.092,1.092,0,0,0,1.092,1.092H30.782a1.092,1.092,0,0,0,1.092-1.092V31.165h6.964a1.092,1.092,0,0,0,1.092-1.092V25.828a8.569,8.569,0,0,0-8.558-8.558ZM3.493,28.982V25.85a6.386,6.386,0,0,1,6.375-6.375h2.609a6.331,6.331,0,0,1,3.635,1.146,8.569,8.569,0,0,0-6.069,8.187v.175Zm26.2,4.366H12.226V28.808A6.386,6.386,0,0,1,18.6,22.433h4.7a6.386,6.386,0,0,1,6.386,6.375Zm8.056-4.366H31.873v-.175a8.591,8.591,0,0,0-6.549-8.329A6.309,6.309,0,0,1,28.8,19.453h2.631A6.386,6.386,0,0,1,37.8,25.828Z" transform="translate(-1.31 -1.634)" fill="#1dc5ce"/>
</svg>
