<svg id="Line" xmlns="http://www.w3.org/2000/svg" width="30.104" height="25.997" viewBox="0 0 30.104 25.997">
  <path id="Path_30078" data-name="Path 30078" d="M32.684,25.737a.684.684,0,0,0,.684-.684V23.684a.684.684,0,1,0-1.368,0v1.368A.684.684,0,0,0,32.684,25.737Z" transform="translate(-11.474 -10.686)" fill="#1dc5ce"/>
  <path id="Path_30079" data-name="Path 30079" d="M32.684,31.737a.684.684,0,0,0,.684-.684V29.684a.684.684,0,1,0-1.368,0v1.368A.684.684,0,0,0,32.684,31.737Z" transform="translate(-11.474 -12.581)" fill="#1dc5ce"/>
  <path id="Path_30080" data-name="Path 30080" d="M32.684,37.737a.684.684,0,0,0,.684-.684V35.684a.684.684,0,1,0-1.368,0v1.368A.684.684,0,0,0,32.684,37.737Z" transform="translate(-11.474 -14.476)" fill="#1dc5ce"/>
  <path id="Path_30081" data-name="Path 30081" d="M31.42,14.579h-.452L7.85,5.056a.684.684,0,0,0-.9.369L5.134,9.852a.643.643,0,0,0,0,.527.684.684,0,0,0,.369.369l1.286.52A2.053,2.053,0,0,1,7.9,13.95a2.1,2.1,0,0,1-.431.629H2.684A.684.684,0,0,0,2,15.264v4.789a.684.684,0,0,0,.684.684H4.053a2.053,2.053,0,1,1,0,4.105H2.684A.684.684,0,0,0,2,25.526v4.789A.684.684,0,0,0,2.684,31H31.42a.684.684,0,0,0,.684-.684V25.526a.684.684,0,0,0-.684-.684H30.052a2.053,2.053,0,1,1,0-4.105H31.42a.684.684,0,0,0,.684-.684V15.264A.684.684,0,0,0,31.42,14.579ZM7.289,10l-.629-.26,1.3-3.161,19.417,8H9.1c0-.041.041-.075.055-.109A3.421,3.421,0,0,0,7.289,10Zm23.447,9.367h-.684a3.421,3.421,0,1,0,0,6.842h.684v3.421H3.368V26.211h.684a3.421,3.421,0,1,0,0-6.842H3.368V15.948H30.736Z" transform="translate(-2 -5.002)" fill="#1dc5ce"/>
  <path id="Path_30082" data-name="Path 30082" d="M14.684,26.368h8.21a.684.684,0,1,0,0-1.368h-8.21a.684.684,0,0,0,0,1.368Z" transform="translate(-5.79 -11.318)" fill="#1dc5ce"/>
  <path id="Path_30083" data-name="Path 30083" d="M14.684,36.368h8.21a.684.684,0,0,0,0-1.368h-8.21a.684.684,0,0,0,0,1.368Z" transform="translate(-5.79 -14.476)" fill="#1dc5ce"/>
  <path id="Path_30084" data-name="Path 30084" d="M14.684,31.368h8.21a.684.684,0,1,0,0-1.368h-8.21a.684.684,0,1,0,0,1.368Z" transform="translate(-5.79 -12.897)" fill="#1dc5ce"/>
</svg>
