<svg xmlns="http://www.w3.org/2000/svg" width="17.434" height="21.152" viewBox="0 0 17.434 21.152">
  <g id="portable-toilet" transform="translate(-45)">
    <path id="Path_25871" data-name="Path 25871" d="M60.533,20.532V6.2h1.285a.616.616,0,0,0,.615-.62V3.944a.616.616,0,0,0-.1-.343A8.045,8.045,0,0,0,55.621,0H51.812A8.045,8.045,0,0,0,45.1,3.6a.616.616,0,0,0-.1.343V5.577a.616.616,0,0,0,.615.62H46.9V20.532a.62.62,0,0,0,.62.62H59.914A.62.62,0,0,0,60.533,20.532Zm-1.239-.62H48.14V5.75a4.358,4.358,0,0,1,3.672-2.032h3.809A4.358,4.358,0,0,1,59.294,5.75ZM55.621,2.479H51.812a5.6,5.6,0,0,0-4.635,2.479h-.942V4.135a6.807,6.807,0,0,1,5.577-2.9h3.809a6.807,6.807,0,0,1,5.577,2.9v.822h-.942A5.6,5.6,0,0,0,55.621,2.479Z" fill="#1dc5ce"/>
    <path id="Path_25872" data-name="Path 25872" d="M157.242,120h-3.809a3.113,3.113,0,0,0-2.267.99.62.62,0,0,0-.167.423V133.1a.62.62,0,0,0,.62.62h7.436a.62.62,0,0,0,.62-.62V121.412a.619.619,0,0,0-.167-.423A3.113,3.113,0,0,0,157.242,120Zm1.194,6.238h-.62a.62.62,0,0,0,0,1.239h.62v5h-6.2v-10.8a1.865,1.865,0,0,1,1.194-.438h3.809a1.865,1.865,0,0,1,1.194.438v4.561Z" transform="translate(-101.621 -115.043)" fill="#1dc5ce"/>
    <path id="Path_25873" data-name="Path 25873" d="M214.1,180H211.62a.62.62,0,1,0,0,1.239H214.1a.62.62,0,1,0,0-1.239Z" transform="translate(-159.142 -172.564)" fill="#1dc5ce"/>
  </g>
</svg>
