<svg xmlns="http://www.w3.org/2000/svg" width="37.793" height="38.355" viewBox="0 0 37.793 38.355">
  <g id="tour-guide" transform="translate(0)">
    <path id="Path_26588" data-name="Path 26588" d="M33.33,33.65a.562.562,0,0,0-.793.053l-2.316,2.649a1.334,1.334,0,0,1-1.946.066l-1.785-1.784v-1.18a.562.562,0,1,0-1.124,0v4.339a.562.562,0,0,0,1.124,0V36.222l.991.99a2.457,2.457,0,0,0,3.587-.121l2.316-2.649A.562.562,0,0,0,33.33,33.65ZM10,32.891a.562.562,0,0,0-.562.562v4.339a.562.562,0,0,0,1.124,0V33.453A.562.562,0,0,0,10,32.891ZM41.112,8.907l-3.766-3.06a.862.862,0,0,0-1.4.669v7.222s0,0,0,0v9.113L30.285,29.3l-1.792-3.346a5.9,5.9,0,0,0-4.223-3.021l-3.081-.5a.952.952,0,0,1-.8-.942v-.664a7.021,7.021,0,0,0,1.224-.976,6.932,6.932,0,0,0,2.043-4.932v-.244h.216a2.054,2.054,0,0,0,1.375-3.583,1.813,1.813,0,0,0,.233-1.616,1.783,1.783,0,0,0-.958-1.043l-.178-.077V4.31A4.315,4.315,0,0,0,20.032,0h-6.7a4.315,4.315,0,0,0-4.31,4.31V8.355l-.177.077a1.78,1.78,0,0,0-.726,2.66A2.054,2.054,0,0,0,9.49,14.674h.216v.244a6.977,6.977,0,0,0,3.266,5.906v.782a.935.935,0,0,1-.712.909L7.6,23.665A5.046,5.046,0,0,0,3.75,28.574v9.219a.562.562,0,0,0,1.124,0V28.574a3.925,3.925,0,0,1,2.991-3.818l3.614-.891a6.13,6.13,0,0,0,10.5-.163l2.105.345A4.774,4.774,0,0,1,27.5,26.489l1.813,3.386a1.092,1.092,0,0,0,1.785.2l3.848-4.388,2.444,2.445.007.006-3.133,3.583a.562.562,0,0,0,.846.74l5.164-5.906a2.89,2.89,0,0,0-.366-4.105,2.845,2.845,0,0,0-2.845-.419V14l4.047-3.288a1.166,1.166,0,0,0,0-1.81ZM24.8,12.617a.943.943,0,0,1-.933.933h-.216v-1.7a1.789,1.789,0,0,0,.628-.067.94.94,0,0,1,.522.838Zm-15.1.933H9.49a.933.933,0,0,1-.413-1.771,1.8,1.8,0,0,0,.63.067v1.7Zm.139-2.879a.672.672,0,0,1-.862-.309.659.659,0,0,1,.312-.9,18.191,18.191,0,0,1,9.84-1.4.562.562,0,1,0,.151-1.113,19.315,19.315,0,0,0-9.146.963V4.31a3.19,3.19,0,0,1,3.187-3.187h6.7A3.19,3.19,0,0,1,23.219,4.31v3.6q-.645-.232-1.3-.417a.562.562,0,0,0-.3,1.082,18.262,18.262,0,0,1,2.453.884.662.662,0,0,1,.314.9.669.669,0,0,1-.864.311,17.351,17.351,0,0,0-13.668,0Zm.985,4.247V11.477a15.778,15.778,0,0,1,11.7,0v3.441a5.85,5.85,0,1,1-11.7,0Zm5.85,10.711a5,5,0,0,1-4.043-2.055A2.1,2.1,0,0,0,14.1,21.4a6.985,6.985,0,0,0,5.167,0,2.077,2.077,0,0,0,1.52,2.093A4.975,4.975,0,0,1,16.68,25.629Zm22.528-2.3a1.748,1.748,0,0,1,.222,2.488l-1.29,1.475-2.45-2.451,1.141-1.3a1.724,1.724,0,0,1,2.376-.211ZM40.4,9.845l-3.338,2.712V7.067L40.4,9.779a.048.048,0,0,1,0,.065Zm-20.63,4.648a.562.562,0,0,0,.562-.562V12.693a.562.562,0,1,0-1.124,0V13.93A.562.562,0,0,0,19.774,14.492Zm-6.187-2.361a.562.562,0,0,0-.562.562V13.93a.562.562,0,0,0,1.124,0V12.693A.562.562,0,0,0,13.587,12.131Zm4.823,5.155a.562.562,0,0,0-.763-.222,2.008,2.008,0,0,1-1.934,0,.562.562,0,1,0-.541.985,3.147,3.147,0,0,0,1.475.387,3.232,3.232,0,0,0,1.54-.387A.562.562,0,0,0,18.41,17.286Z" transform="translate(-3.75 0)" fill="#1dc5ce"/>
  </g>
</svg>
