<svg id="travel-insurance" xmlns="http://www.w3.org/2000/svg" width="32.161" height="32.157" viewBox="0 0 32.161 32.157">
  <g id="Group_17526" data-name="Group 17526" transform="translate(0 0)">
    <path id="Path_26047" data-name="Path 26047" d="M9.828,32.156c-.051,0-.1,0-.151-.005a2.01,2.01,0,0,1-1.467-.815L5.34,27.408a1.49,1.49,0,0,0-.318-.319l-4.2-3.1A1.985,1.985,0,0,1,0,22.55,2.024,2.024,0,0,1,.58,20.958a2.112,2.112,0,0,1,2.349-.438l3.415,1.494,6.643-7.167a.749.749,0,0,0,.2-.627.768.768,0,0,0-.364-.555L1.657,7.747A2.1,2.1,0,0,1,.619,6.17a2.082,2.082,0,0,1,.615-1.745,1.8,1.8,0,0,1,1.691-.478L19.207,7.384a.786.786,0,0,0,.733-.225l5.836-6.2A3.735,3.735,0,0,1,28.5,0a3.867,3.867,0,0,1,2.725.933,3.961,3.961,0,0,1,.933,2.827A3.679,3.679,0,0,1,31.2,6.386l-4.807,4.539a.67.67,0,1,1-.92-.974l4.81-4.542a2.5,2.5,0,0,0,.54-1.674,2.725,2.725,0,0,0-.54-1.856A2.676,2.676,0,0,0,28.5,1.34a2.526,2.526,0,0,0-1.751.541l-5.841,6.2a2.12,2.12,0,0,1-1.983.611L2.623,5.251a.465.465,0,0,0-.446.127.764.764,0,0,0,.139,1.2L13.485,12.5a2.116,2.116,0,0,1,1.033,1.538,2.092,2.092,0,0,1-.551,1.723L7,23.274a.668.668,0,0,1-.76.158L2.386,21.743a.771.771,0,0,0-.852.155.68.68,0,0,0-.193.533.646.646,0,0,0,.271.473l4.2,3.1a2.832,2.832,0,0,1,.6.6l2.877,3.938a.668.668,0,0,0,.488.271.641.641,0,0,0,.508-.189.776.776,0,0,0,.166-.859L8.766,25.913a.668.668,0,0,1,.158-.758l3.363-3.122a.67.67,0,0,1,.912.982l-3.015,2.8,1.5,3.423a2.119,2.119,0,0,1-.456,2.345A1.985,1.985,0,0,1,9.828,32.156Z" transform="translate(0.003 0)" fill="#1dc5ce"/>
  </g>
  <g id="Group_17527" data-name="Group 17527" transform="translate(16.082 13.398)">
    <path id="Path_26048" data-name="Path 26048" d="M20.039,28.758a.65.65,0,0,1-.26-.054C19.46,28.572,12,25.347,12,18.757v-5.6a.672.672,0,0,1,.456-.635l7.369-2.488a.671.671,0,0,1,.429,0l7.369,2.488a.669.669,0,0,1,.456.635v5.6c0,6.589-7.46,9.815-7.779,9.949a.672.672,0,0,1-.26.052Zm-6.7-15.119v5.118c0,5.071,5.433,7.983,6.7,8.594,1.265-.612,6.7-3.535,6.7-8.594V13.639l-6.7-2.262Z" transform="translate(-12 -10)" fill="#1dc5ce"/>
  </g>
  <g id="Group_17528" data-name="Group 17528" transform="translate(20.101 19.428)">
    <path id="Path_26049" data-name="Path 26049" d="M18.35,20.53h-.038a.672.672,0,0,1-.486-.251l-2.68-3.35a.67.67,0,1,1,1.046-.837L18.4,18.856l4.16-4.16a.67.67,0,0,1,.947.947l-4.69,4.69A.662.662,0,0,1,18.35,20.53Z" transform="translate(-15 -14.5)" fill="#1dc5ce"/>
  </g>
</svg>
