<svg xmlns="http://www.w3.org/2000/svg" width="55.129" height="55" viewBox="0 0 55.129 55">
  <g id="Group_3017" data-name="Group 3017" transform="translate(-402.871 -823)">
    <g id="Group_3015" data-name="Group 3015" transform="translate(387.069 806.867)">
      <path id="Path_9101" data-name="Path 9101" d="M39.64,16.672c.341-.1.751-.2,1.006-.29.165-.057.137-.1.133-.137a5.606,5.606,0,0,0-1.485.118c-.458.089-.844.234-1.33.343a13.77,13.77,0,0,1-1.56.269c-.623.155-1.4.389-2.2.656-1.051.383-2.077.867-3.087,1.353l-2.367,1.289a17.03,17.03,0,0,0-2.487,1.739c-.569.513-1.2,1.016-1.754,1.566l-1.566,1.57A25.191,25.191,0,0,0,18.966,30.8a17.475,17.475,0,0,0-1.144,2.509,15.861,15.861,0,0,0-.817,2.55l-.333,1.21c-.088.4-.174.779-.253,1.134a22.807,22.807,0,0,0-.605,4.406,28.616,28.616,0,0,0,2.629,12.852,26.932,26.932,0,0,0,1.636,2.983c.475.681.977,1.357,1.466,2.022.508.65,1.078,1.234,1.6,1.8.346.4.786.8,1.134,1.175A20.984,20.984,0,0,0,27.7,66.372a28.672,28.672,0,0,0,11.191,4.485,13.112,13.112,0,0,0,2.636.25c.435.009.884.033,1.342.064.458-.007.925,0,1.4.008.534.007,1.059.027,1.586-.015.526-.06,1.058-.133,1.615-.219a36.381,36.381,0,0,0,3.564-.766c.6-.166,1.185-.382,1.784-.571a14.521,14.521,0,0,0,1.782-.656,13.383,13.383,0,0,0,2.475-1.247c.542-.364,1.148-.7,1.741-1.113l1.873-1.313a23.879,23.879,0,0,0,4.339-4.329c.517-.682.845-1.25.655-1.113a11.814,11.814,0,0,0-1.415,1.13c-.292.27-.277.159-.032-.24.263-.429.1-.309-.355.181-.49.465-.645.554-.544.406s.451-.541.878-1.13l.683-.912c.417-.544.512-.9.324-.7-.126.141-.36.362-.688.761-.4.47-.8,1-1.238,1.474-.416.422-.685.667-.545.5.115-.139.232-.288.382-.45.678-.79,1.318-1.628,1.939-2.478a26.06,26.06,0,0,0,1.642-2.705c.234-.451.5-.86.468-.718l-.132.44c-.04.144,0,.127.177-.158a6.47,6.47,0,0,0,.623-1.326A4.33,4.33,0,0,0,68,53.423c-.069-.182.314-1.53-.685.7-.213.416-.253.353-.293.347-.113-.02-.13,0-.611.939a11.268,11.268,0,0,1-1.165,1.92c-.418.6-.84,1.2-1.324,1.775-.467.583-.9,1.2-1.436,1.749l-1.094,1.212-1.214,1.112a6.154,6.154,0,0,1-.778.608c-.178.1-.247.1-.2.037s.239-.231.452-.444c.562-.525,1.024-.978,1.412-1.377a13.636,13.636,0,0,0,.9-1.143c.068-.094.233-.289.385-.454a9.485,9.485,0,0,0,.714-.818,1.344,1.344,0,0,1,.275-.27c.049,0,.023.1.046.137a2.175,2.175,0,0,0,.468-.487,19.814,19.814,0,0,0,1.479-2.2,3.473,3.473,0,0,0,.235-.445c.058-.149-.055-.025-.243.226l-.186.258c-.618.89-.926,1.26-1.068,1.289a1.4,1.4,0,0,0-.369.127,4.535,4.535,0,0,0-.378.428,25.007,25.007,0,0,1-4.907,4.94,22.543,22.543,0,0,1-3.974,2.5,19.038,19.038,0,0,1-2.374,1.026,15.17,15.17,0,0,1-2.548.739,40.17,40.17,0,0,1-4.065.659l-1.652.069a10.229,10.229,0,0,1-1.676-.021,13.214,13.214,0,0,1-2.231-.261l-1.015-.228-.91-.186-.865-.224-.625-.146a9.54,9.54,0,0,1-2.308-.833c-.708-.305-1.453-.717-2.26-1.1l-.317-.15A16.544,16.544,0,0,1,29.167,63.9c-.635-.575-1.443-1.176-2.1-1.83-.349-.359-.7-.7-1.059-1.018a13.877,13.877,0,0,1-1.194-1.2A9.121,9.121,0,0,1,23.21,57.7l-.35-.622c-.225-.378-.4-.758-.659-1.14l-.65-.987a13.514,13.514,0,0,1-1.176-2.816l-.108-.576a6.766,6.766,0,0,0-.4-1.207,3.5,3.5,0,0,1-.183-.556c-.083-.328-.185-.742-.241-1.037a11.079,11.079,0,0,1-.185-1.238c-.027-.835-.181-1.753-.209-2.806a22.9,22.9,0,0,1,.089-3.4c.049-.928.171-1.73.226-2.309.018-.225.036-.451.056-.7a3.374,3.374,0,0,1,.226-.97c.186-.425.34-.714.584-1.383.1-.276.182-.465.193-.38a9.99,9.99,0,0,1-.29,1.2,13.1,13.1,0,0,0-.376,1.45,24.161,24.161,0,0,0-.459,7.835,16.622,16.622,0,0,0,.422,2.573c.164.694.334,1.072.317.739,0-.488-.242-1.417-.351-2.368a16.949,16.949,0,0,1-.271-2.737,15.959,15.959,0,0,1,.1-2.735c.076-.583.087-1.232.219-1.818a18.185,18.185,0,0,1,.648-2.877c.144-.455.273-.907.431-1.341l.555-1.255c.267-.659.6-1.336.88-1.928.229-.469.373-.925.621-1.331.291-.522.653-1.128,1.064-1.758l-.049.075-.055-.084A6.286,6.286,0,0,1,25,27.558c.372-.456.8-.794,1.195-1.2a6.026,6.026,0,0,0,.72-.822c.013-.065-.016-.094,0-.157a.779.779,0,0,1,.085-.192c.013-.023.088-.1.124-.141a8.467,8.467,0,0,1,.725-.66,3.32,3.32,0,0,1,.391-.279c.113.023.165.1.262.136.024,0,.632-.387.939-.611l1.131-.846c.47-.306.951-.577,1.419-.843a7.609,7.609,0,0,1,1.423-.672l.576-.218c.322-.122.64-.256.962-.4l1.013-.359a14.1,14.1,0,0,1,1.968-.648,9.857,9.857,0,0,1,1.914-.345l.844.037a15.945,15.945,0,0,0,1.593-.123c.948-.018,1.893-.133,2.847-.072a6.122,6.122,0,0,1,1.58.224l.356.18c.014.008.194.046.3.065l.311.048a2.113,2.113,0,0,0,.363.015.914.914,0,0,0,.245-.171,1.026,1.026,0,0,1,.605.013,1.938,1.938,0,0,1,.61.185,2.934,2.934,0,0,0,.323.183,11.2,11.2,0,0,0,1.434.492c.738.2,1.374.5,1.948.666a8.679,8.679,0,0,1,1.063.377,8.916,8.916,0,0,1,1.124.615c.14.115.313.249.3.286s-.209,0-.307.011.256.2.685.466l1.215.75c.785.451,1.27.892,1.7,1.112a10.752,10.752,0,0,1,1.206.786c.1.076.189.127.189.1a.533.533,0,0,0-.138-.251,5.284,5.284,0,0,0-1.006-.881l-1.018-.72c-.077-.059-.237-.17-.274-.192a1.983,1.983,0,0,1-.264-.222c-.015-.033.111.025.134.015.23-.076-1.422-1.411-3.535-2.3-.408-.181-.8-.283-1.21-.434a8.443,8.443,0,0,1-1.2-.507,13.868,13.868,0,0,0-2.757-.986l-1.41-.3a14.553,14.553,0,0,0-1.808-.252,14.153,14.153,0,0,0-1.827-.136l-1.479,0c-.925.015-1.8.181-2.658.247-.858.092-1.676.308-2.509.451a10.188,10.188,0,0,0-1.449.414c-1.486.443-2.5.937-3.453,1.239-.436.153-1.175.582-1.785.887-.641.3-1.123.632-1.414.758-.568.259-.843.307-.634.007a5.177,5.177,0,0,1,.8-.663c.879-.584,1.675-.989,2.308-1.4.652-.382,1.212-.652,1.653-.934l.241-.131a9.361,9.361,0,0,1,1.607-.679,13.239,13.239,0,0,1,1.888-.56l2.158-.405,1.162-.149c.6-.083,1.025-.2.792-.218a10.613,10.613,0,0,0-3.268.325l-1.371.3-1.323.412a25.251,25.251,0,0,0-8.639,4.609l-.6.5a17.27,17.27,0,0,0-1.882,1.688A19.027,19.027,0,0,0,22.4,27.056c-.184.222-.269.234-.1-.006.187-.265.419-.6.632-.86a19.359,19.359,0,0,1,1.645-1.751,14,14,0,0,1,1.363-1.249c.471-.39.916-.8,1.395-1.167.982-.692,1.9-1.438,2.9-2.013a2.268,2.268,0,0,1,.711-.352c.022.045-.164.211.359-.037.471-.243,1.142-.494,1.757-.776l.375-.162c.917-.426,1.781-.641,2.465-.951a14.229,14.229,0,0,1,2.012-.671,13.314,13.314,0,0,1,1.829-.409ZM58.189,64.041c.213-.195.517-.439.878-.708l1.136-.95c.359-.291.542-.369.311-.134a11.257,11.257,0,0,1-1.831,1.561,1.9,1.9,0,0,1-.55.305A.237.237,0,0,1,58.189,64.041Zm-3.466,3.095A2.394,2.394,0,0,1,55.129,67c.022.007-.13.107-.276.176-.562.258-1.144.552-1.735.779-.3.1-.663.194-.865.238-.254.055.212-.153.724-.331a3.462,3.462,0,0,0,.359-.138l.715-.313Zm2.582.011a6.017,6.017,0,0,1-1.3.577c-.155.037.4-.332.992-.66a6.94,6.94,0,0,1,1.019-.5c.2-.062.331-.08-.086.209l-.288.18Zm4.075-2.938c-.715.55-1.1.77-1.068.632.011-.018.193-.2.345-.339s.432-.367.551-.453a3.29,3.29,0,0,1,.95-.573c.025,0-.118.147-.219.254l-.272.244ZM36.409,19.758c-.142.058-.507.187-.615.215-.557.144-.4,0,.266-.247a5.185,5.185,0,0,1,.547-.152c.109-.019.065.019.087.033A1.9,1.9,0,0,1,36.409,19.758ZM21.8,32.472a1.818,1.818,0,0,1-.338.514c-.04.01.011-.145.175-.489a5.181,5.181,0,0,1,.432-.758c.049-.057.054-.023.079-.03A4.759,4.759,0,0,1,21.8,32.472ZM19.942,57.721c.147.186.373.618.55.877.084.139.127.242.088.214a3.149,3.149,0,0,1-.537-.772C19.857,57.7,19.806,57.534,19.942,57.721ZM27.186,22.97c-.112.08-.183.11-.156.066a3.292,3.292,0,0,1,.708-.6.394.394,0,0,1,.178-.063C27.793,22.485,27.385,22.813,27.186,22.97ZM52.174,67.624a3.567,3.567,0,0,1,.474-.126c.06.014-.215.128-.586.253a3.408,3.408,0,0,1-.471.124C51.528,67.861,51.8,67.749,52.174,67.624ZM60.3,63.806a4.552,4.552,0,0,1-.516.44c-.323.22-.461.264-.228.075a6.694,6.694,0,0,0,.533-.43C60.37,63.665,60.511,63.6,60.3,63.806Zm-5.17,2.425a5.609,5.609,0,0,1,.505-.261c.035-.013.01.017-.044.053a1.714,1.714,0,0,1-.508.256C55.1,66.264,55.072,66.261,55.128,66.231ZM23.363,29.181a.938.938,0,0,1-.064.133c-.045.061-.118.167-.127.172a.883.883,0,0,1,.065-.134C23.281,29.291,23.353,29.187,23.363,29.181Z" transform="translate(0 -0.057)" fill="#10221b"/>
      <path id="Path_9102" data-name="Path 9102" d="M77.572,16.6a3.08,3.08,0,0,0-1.313.491c-.025.1.511-.038,1.406-.128a15.432,15.432,0,0,1,3.365-.2A19.5,19.5,0,0,1,83,16.886l1.007.133c.438.066,1.214.089,1.389.11a3.071,3.071,0,0,0,.325-.03,9.343,9.343,0,0,1,1.7.2,14.605,14.605,0,0,1,1.774.468,13.372,13.372,0,0,1,1.68.582,10.162,10.162,0,0,1,1.566.753c.258.171.627.475,1.37.911.563.339.73.493.772.586a1.425,1.425,0,0,0,.181.235,8.817,8.817,0,0,0,.945.7,6.952,6.952,0,0,0,1.179.659c.06,0,.127,0,.062-.1-.1-.149-.367-.38-.5-.542-.09-.1-.156-.2-.081-.2a3.587,3.587,0,0,1,.582.294,8.814,8.814,0,0,1,1.137.906l.163.161c.435.533.723.937.714,1.162,0,.075-.2-.068-.615-.337l-.456-.305c-.414-.262-.2.011.4.5.494.393.924.886,1.4,1.325a6.761,6.761,0,0,1,1.43,1.743,2.491,2.491,0,0,0,.136.246c.126.207.3.449.52.738.2.305.437.655.724,1.052a14,14,0,0,1,.868,1.251l.566,1a3.026,3.026,0,0,1,.442,1.039,4.22,4.22,0,0,1-.522-.787l-.384-.652c-.261-.432-.414-.592-.277-.288l.446.958a17.345,17.345,0,0,1,.748,1.6l.745,1.6c.349.918.794,1.8,1.034,2.646l.6,1.79c.164.7.3,1.653.447,2.424.042.229.087.271.114.259a2.75,2.75,0,0,0-.013-.489c-.034-.348-.073-.74-.11-1.122-.094-1.153-.264-1.878-.326-2.53a8.618,8.618,0,0,1-.081-1.477,4.683,4.683,0,0,0-.13-1.309,12.626,12.626,0,0,0-.781-2.553,18.235,18.235,0,0,0-1.5-3c-.363-.569-.8-1.152-1.137-1.67a23.94,23.94,0,0,0-3.405-3.915c-.443-.46-.942-.873-1.369-1.247-.332-.289-.674-.575-1.03-.86-.369-.268-.77-.51-1.183-.767-.981-.642-1.858-1.1-2.6-1.547A9.8,9.8,0,0,0,92,18.335a15.247,15.247,0,0,0-2.088-.8c-.981-.259-1.8-.6-2.578-.759a15.567,15.567,0,0,0-3.1-.514l-1.656-.127c-.557,0-1.107.015-1.609.035a15.816,15.816,0,0,0-2.734.334l-.775.113Zm27.652,16a9.433,9.433,0,0,0-.957-1.666,9.772,9.772,0,0,0-.709-.931l-.143-.206c-.1-.162-.5-.69-.6-.877-.483-.832-.46-1.049.068-.436l.352.425c.8.982,1,1.32,1.156,1.3.043,0,.167.14.27.244.013.013.139.223.172.288a14.5,14.5,0,0,1,1.036,2.7c.019.136-.042.1-.052.117A3.737,3.737,0,0,1,105.224,32.593Zm-2.813-5.181a12.831,12.831,0,0,1-1.063-1.293c-.076-.13-.136-.247-.12-.273.043-.069.515.377.921.866.576.653.818,1.261.648,1.129Z" transform="translate(-37.823)" fill="#10221b"/>
      <path id="Path_9103" data-name="Path 9103" d="M32.693,118.313a10.552,10.552,0,0,0,1.2,1.508,27.448,27.448,0,0,0,2.338,2.309c1.063.85,2.115,1.681,3.22,2.4a11.089,11.089,0,0,0,1.9,1.057,11.482,11.482,0,0,0,1.277.561c.331.123.709.261,1.014.39a12.866,12.866,0,0,0,1.883.654,13.094,13.094,0,0,0,1.952.487c.1.019.3.088.275.1a3.729,3.729,0,0,1-1.347-.138,23.878,23.878,0,0,1-3-.915c-.489-.2-.989-.37-1.468-.592l-1.4-.733c-.912-.459-1.7-1.072-2.535-1.578-.757-.619-1.575-1.153-2.292-1.824a19.08,19.08,0,0,1-2.089-2.123,24.371,24.371,0,0,1-3.193-4.629A19.091,19.091,0,0,1,29.47,113c-.134-.373-.1-.454.07-.1l.581,1.16a13.594,13.594,0,0,0,.943,1.763,14.915,14.915,0,0,0,1.082,1.7Z" transform="translate(-8.499 -60.397)" fill="#10221b"/>
      <path id="Path_9104" data-name="Path 9104" d="M153.586,114.14a12.927,12.927,0,0,1,.9-2.12c.473-.958.811-2.006,1.212-3.02.2-.693.393-1.258.571-1.745s.258-.523.129.039c-.1.421-.225.981-.355,1.4-.567,1.551-1.015,2.828-1.55,3.953l-.352.712a3.806,3.806,0,0,1-.478.767A.2.2,0,0,1,153.586,114.14Z" transform="translate(-86.2 -56.773)" fill="#10221b"/>
      <path id="Path_9105" data-name="Path 9105" d="M42.633,59.327a.975.975,0,0,1-.063.139,22.4,22.4,0,0,0-2.014,3.915.965.965,0,0,1-.155.268.589.589,0,0,1,.053-.26l.279-.783a12.07,12.07,0,0,1,.787-1.611,10.307,10.307,0,0,1,.927-1.464A1.411,1.411,0,0,1,42.633,59.327Z" transform="translate(-15.387 -27.023)" fill="#10221b"/>
      <path id="Path_9106" data-name="Path 9106" d="M36.091,104.2c-.052-.118.059.211.013.177a.631.631,0,0,1-.205-.282c-.152-.379-.306-.793-.461-1.229l-.232-.672-.153-.719a1.943,1.943,0,0,1-.07-.595,1.3,1.3,0,0,1,.161.369C35.336,102.024,35.667,102.9,36.091,104.2Z" transform="translate(-11.993 -53.019)" fill="#10221b"/>
      <path id="Path_9107" data-name="Path 9107" d="M37.988,97.054c.028.127.062.261.052.246a1.126,1.126,0,0,1-.134-.251c-.173-.452-.244-.936-.376-1.406a8.386,8.386,0,0,1-.288-1.441c-.037-.277-.077-.63-.094-.868a2.6,2.6,0,0,1,.006-.5c.012-.088.094.244.127.495A25.381,25.381,0,0,0,37.988,97.054Z" transform="translate(-13.35 -47.978)" fill="#10221b"/>
      <path id="Path_9108" data-name="Path 9108" d="M37.412,45.369c.756-.884,1.463-1.854,2.362-2.73.452-.476.823-.791.834-.726a5.579,5.579,0,0,1-.954,1.147c-.627.589-1.068,1.172-1.441,1.565a2.683,2.683,0,0,1-.752.668Z" transform="translate(-13.52 -16.124)" fill="#10221b"/>
      <path id="Path_9109" data-name="Path 9109" d="M87.073,153.518a2.391,2.391,0,0,1,.387.064c.052.041-.228.082-.651.112s-.871.056-1.334.066c-.462-.032-.94-.074-1.427-.128-.142-.015-.313-.066-.243-.07.628-.058,1.557.04,2.819-.046Z" transform="translate(-42.534 -85.949)" fill="#10221b"/>
      <path id="Path_9110" data-name="Path 9110" d="M112.533,22.093c-.17-.053-.391-.107-.687-.218s-.8-.321-1-.383c-.4-.156-.721-.3-.959-.412s.246-.035.9.137a6.563,6.563,0,0,1,1.36.524C112.617,21.984,112.763,22.1,112.533,22.093Z" transform="translate(-58.824 -3.061)" fill="#10221b"/>
      <path id="Path_9111" data-name="Path 9111" d="M50.15,127.264c.282.284.461.529.342.463a6.74,6.74,0,0,1-1.078-.882,3.413,3.413,0,0,1-.528-.619c-.093-.141-.109-.219-.04-.177a3.223,3.223,0,0,1,.495.457C49.583,126.713,49.867,126.979,50.15,127.264Z" transform="translate(-20.647 -68.758)" fill="#10221b"/>
      <path id="Path_9112" data-name="Path 9112" d="M99,19.969a3.783,3.783,0,0,1-.8-.094c-1.16-.2-2.014-.315-1.515-.368a6.116,6.116,0,0,1,.617.027A4.183,4.183,0,0,1,99,19.969Z" transform="translate(-50.512 -2.11)" fill="#10221b"/>
      <path id="Path_9113" data-name="Path 9113" d="M48.967,136.662l.257.135a6.467,6.467,0,0,1,.712.527,4.581,4.581,0,0,1,.337.319c.064.072.067.1.04.106a3.393,3.393,0,0,1-1.033-.674C48.911,136.77,48.8,136.6,48.967,136.662Z" transform="translate(-20.702 -75.397)" fill="#10221b"/>
      <path id="Path_9114" data-name="Path 9114" d="M151.549,111.882c.055-.092.162-.305.158-.257a9.148,9.148,0,0,1-.513,1.674,1.864,1.864,0,0,1-.243.456c-.148.128.076-.514.459-1.545Z" transform="translate(-84.524 -59.737)" fill="#10221b"/>
      <path id="Path_9115" data-name="Path 9115" d="M53.8,46.509c-.179.148-.193.172-.086.036.051-.051.084-.094.141-.144l1.1-.976a14.221,14.221,0,0,1,1.2-.871c.116-.079.216-.127.323-.19l-.161.139c-.417.33-.873.613-1.287.957Z" transform="translate(-23.676 -17.662)" fill="#10221b"/>
      <path id="Path_9116" data-name="Path 9116" d="M48.258,121.683c.075.1.193.174.26.259.4.468.617.809.485.748a3.4,3.4,0,0,1-.3-.319C48.379,121.972,48.24,121.769,48.258,121.683Z" transform="translate(-20.305 -66.034)" fill="#10221b"/>
      <path id="Path_9117" data-name="Path 9117" d="M137.511,62.4l-.283-.536a2.577,2.577,0,0,1,.192.256l.46.754.378.81c.1.213.147.36.122.359a.472.472,0,0,1-.085-.133A11.862,11.862,0,0,0,137.511,62.4Z" transform="translate(-75.967 -28.609)" fill="#10221b"/>
      <path id="Path_9118" data-name="Path 9118" d="M136.955,44.7c.113.147.29.362.327.426.1.169-.153-.057-.5-.452-.1-.131-.319-.343-.34-.387C136.353,44.161,136.652,44.336,136.955,44.7Z" transform="translate(-75.465 -17.589)" fill="#10221b"/>
      <path id="Path_9119" data-name="Path 9119" d="M158.1,62.356a3.51,3.51,0,0,1,.2.4c.046.171.124.431.132.5.017.151-.085-.055-.2-.372-.036-.1-.091-.28-.1-.317C158.117,62.466,158.109,62.422,158.1,62.356Z" transform="translate(-89.024 -28.918)" fill="#10221b"/>
      <path id="Path_9120" data-name="Path 9120" d="M33.086,93.564a3.76,3.76,0,0,1,.1.776c0,.076-.036.044-.056-.058-.025-.127-.06-.393-.077-.571C33.032,93.469,33.048,93.433,33.086,93.564Z" transform="translate(-10.788 -48.395)" fill="#10221b"/>
      <path id="Path_9121" data-name="Path 9121" d="M137.546,124.641a3.116,3.116,0,0,1,.425-.584c.094-.1.182-.179.192-.167a2.636,2.636,0,0,1-.411.565A1.715,1.715,0,0,1,137.546,124.641Z" transform="translate(-76.165 -67.413)" fill="#10221b"/>
      <path id="Path_9122" data-name="Path 9122" d="M72.533,38.16a3.038,3.038,0,0,1-.687.255c-.21.058-.314.069-.18.007.1-.045.331-.122.509-.184.08-.028.2-.06.259-.073A.288.288,0,0,1,72.533,38.16Z" transform="translate(-34.912 -13.779)" fill="#10221b"/>
      <path id="Path_9123" data-name="Path 9123" d="M162.926,85.208c0,.114,0,.262,0,.337-.014.262-.051.173-.073-.227,0-.149,0-.412,0-.623a1.685,1.685,0,0,1,.056.207C162.908,84.946,162.919,85.1,162.926,85.208Z" transform="translate(-91.995 -42.894)" fill="#10221b"/>
      <path id="Path_9124" data-name="Path 9124" d="M27.966,90.349l-.034-.449a.687.687,0,0,1,.042-.144c0-.005.02.2.019.214C27.983,90.108,27.975,90.226,27.966,90.349Z" transform="translate(-7.589 -46.06)" fill="#10221b"/>
      <path id="Path_9125" data-name="Path 9125" d="M96.215,152.34l.842-.147c.156-.024.47-.052.586-.054s.127.025.03.046-.417.068-.595.085l-.918.07Z" transform="translate(-50.273 -85.088)" fill="#10221b"/>
      <path id="Path_9126" data-name="Path 9126" d="M161.127,102.026l-.035.283c-.06.319-.1.442-.1.319a2.182,2.182,0,0,1,.033-.272C161.087,102.037,161.121,101.927,161.127,102.026Z" transform="translate(-90.835 -53.714)" fill="#10221b"/>
      <path id="Path_9127" data-name="Path 9127" d="M114.372,148.407c.087-.033.221-.089.253-.1.121-.025.008.038-.277.155-.072.03-.146.048-.144.038A1.709,1.709,0,0,1,114.372,148.407Z" transform="translate(-61.563 -82.69)" fill="#10221b"/>
      <path id="Path_9128" data-name="Path 9128" d="M100.172,153.067l-.17,0,.256-.034Z" transform="translate(-52.677 -85.648)" fill="#10221b"/>
      <path id="Path_9129" data-name="Path 9129" d="M146.37,85.245l-.007.2-.016-.17Z" transform="translate(-81.671 -43.238)" fill="#10221b"/>
      <path id="Path_9130" data-name="Path 9130" d="M96.159,152.676h0Z" transform="translate(-50.273 -85.424)" fill="#10221b"/>
    </g>
    <g id="Polygon_1" data-name="Polygon 1" transform="translate(441 841) rotate(90)" fill="#fff">
      <path d="M 16.2901496887207 15.49999809265137 L 1.709848999977112 15.49999809265137 C 1.450989007949829 15.49999809265137 1.321779012680054 15.3268575668335 1.278239011764526 15.25242805480957 C 1.234709024429321 15.17798805236816 1.147149085998535 14.98048782348633 1.274059057235718 14.75486755371094 L 8.56421947479248 1.794597864151001 C 8.693609237670898 1.564567923545837 8.912078857421875 1.539727926254272 8.999999046325684 1.539727926254272 C 9.087919235229492 1.539727926254272 9.306399345397949 1.564567923545837 9.435789108276367 1.794597864151001 L 16.72593879699707 14.75486755371094 C 16.85284996032715 14.98048782348633 16.76528930664062 15.17798805236816 16.72175979614258 15.25242805480957 C 16.67821884155273 15.3268575668335 16.54900932312012 15.49999809265137 16.2901496887207 15.49999809265137 Z" stroke="none"/>
      <path d="M 9.000006675720215 2.039732933044434 L 9.000008583068848 2.039728164672852 L 1.709848403930664 14.99999809265137 L 16.2901496887207 14.99999809265137 L 9.000008583068848 2.039737701416016 C 9.000008583068848 2.039736747741699 9.000006675720215 2.039734840393066 9.000006675720215 2.039732933044434 M 9 1.039730072021484 C 9.340211868286133 1.039730072021484 9.680423736572266 1.209643363952637 9.871579170227051 1.549468040466309 L 17.16172981262207 14.50973796844482 C 17.53668975830078 15.17633819580078 17.05497932434082 15.99999809265137 16.2901496887207 15.99999809265137 L 1.709848403930664 15.99999809265137 C 0.9450187683105469 15.99999809265137 0.4633083343505859 15.17633819580078 0.8382682800292969 14.50973796844482 L 8.128429412841797 1.549468040466309 C 8.319579124450684 1.209643363952637 8.659789085388184 1.039730072021484 9 1.039730072021484 Z" stroke="none" fill="#1dc5ce"/>
    </g>
  </g>
</svg>
