<svg xmlns="http://www.w3.org/2000/svg" width="20.033" height="20" viewBox="0 0 20.033 20">
  <g id="zoom_1_" data-name="zoom (1)" transform="translate(-11 -11.4)">
    <g id="Group_17652" data-name="Group 17652" transform="translate(11 11.4)">
      <path id="Path_26564" data-name="Path 26564" d="M136.533,133.35h-2.016v-2.016a.834.834,0,0,0-1.668,0v2.016h-2.016a.834.834,0,1,0,0,1.668h2.016v2.016a.834.834,0,1,0,1.668,0v-2.016h2.016a.834.834,0,0,0,0-1.668Z" transform="translate(-125.135 -125.631)" fill="#8a8a8a"/>
      <path id="Path_26565" data-name="Path 26565" d="M19.553,26.825a6.872,6.872,0,1,1,6.872-6.872A6.873,6.873,0,0,1,19.553,26.825Zm11.235,3.189-4.632-4.632a8.513,8.513,0,1,0-1.177,1.182L29.61,31.2a.96.96,0,0,0,1.182,0A.838.838,0,0,0,30.788,30.014Z" transform="translate(-11 -11.4)" fill="#8a8a8a"/>
    </g>
  </g>
</svg>
